<svg xmlns="http://www.w3.org/2000/svg" width="116" height="75" fill="none"><g fill="#6CA8DE" clip-path="url(#a)"><path d="M114.227 53.132H0v4.042h114.227v-4.042ZM1.122 64.661h4.299c3.096 0 5.218 1.866 5.218 4.732s-2.122 4.731-5.218 4.731H1.122v-9.463Zm4.19 7.665c1.88 0 3.11-1.122 3.11-2.933 0-1.812-1.23-2.934-3.11-2.934h-2v5.867h2Zm26.474-7.665v9.463h-2.19v-3.88h-4.299v3.88h-2.19v-9.463h2.19v3.731h4.3v-3.731h2.19Zm15.024 1.784h-3.03v-1.784h8.247v1.784H49v7.68h-2.19v-7.68Zm25.824 7.679-.014-5.678-2.785 4.678h-.987l-2.77-4.556v5.556h-2.056v-9.463h1.812l3.541 5.88 3.489-5.88h1.798l.026 9.463h-2.054Zm15.118-9.463h2.19v7.679h4.745v1.784h-6.935v-9.463Zm24.81 9.463-2.285-3.285-2.244 3.285h-2.515l3.502-4.812-3.325-4.651h2.487l2.176 3.069 2.136-3.069h2.366l-3.298 4.57 3.528 4.893h-2.528Zm-10.559-28.366L90.955 29.874l-10.85 15.884h-12.16l16.931-23.271L68.796 0h12.028l10.524 14.838L101.676 0h11.44l-15.95 22.095 17.061 23.663h-12.224ZM0 0h15.216c14.969 0 25.231 9.02 25.231 22.879 0 13.858-10.262 22.879-25.231 22.879H0V0Zm14.693 37.064c9.086 0 15.034-5.426 15.034-14.185 0-8.76-5.948-14.185-15.034-14.185H10.59v28.37h4.103Z"/><path d="m67.507 43.506 10.59-14.804V15.996L67.507 1.02v17.022H46.72V0H36.13v6.159c2.59 3.184 6.286 8.615 6.286 16.013 0 9.468-4.584 15.507-6.286 17.03v6.556h10.59v-18.76h20.787v16.508Z"/></g><defs><clipPath id="a"><path fill="#fff" d="M0 0h115.09v74.124H0z"/></clipPath></defs></svg>