<svg xmlns="http://www.w3.org/2000/svg" width="30" height="32" fill="none"><g clip-path="url(#a)"><path fill="red" d="M0 9.759C.015 7.026.923 4.63 2.723 2.565 3.39 1.801 4.093 1.08 4.975.551c.48-.287.992-.501 1.552-.544.707-.054 1.312.212 1.781.725.99 1.08 1.871 2.244 2.589 3.522.496.885.915 1.807 1.03 2.822.111.996-.12 1.894-.954 2.56-.69.55-1.366 1.117-2.063 1.659-1.029.8-1.35 1.788-.941 3.016.34 1.02.923 1.915 1.526 2.794a24.023 24.023 0 0 0 4.61 5.02c.502.413 1.01.84 1.58 1.145 1.383.74 2.68.433 3.671-.778.705-.86 1.535-1.556 2.62-1.905 1.033-.333 2.02-.215 2.91.39 1.515 1.032 2.968 2.146 4.238 3.475.531.557.883 1.193.876 1.984-.005.487-.186.91-.493 1.282-1.437 1.738-3.21 3.018-5.357 3.751-1.975.674-3.975.691-5.991.136a19.133 19.133 0 0 1-7.701-4.188c-.968-.858-1.855-1.81-2.73-2.765a87.095 87.095 0 0 1-3.013-3.472c-.951-1.156-1.871-2.343-2.511-3.708-.475-1.012-.96-2.022-1.36-3.063a12.287 12.287 0 0 1-.788-3.747C.039 10.361.019 10.06 0 9.76Z"/></g><defs><clipPath id="a"><path fill="#fff" d="M0 0h30v32H0z"/></clipPath></defs></svg>