<svg xmlns="http://www.w3.org/2000/svg" width="109" height="109" fill="none"><g clip-path="url(#a)"><path fill="#EEDE3A" d="M.074 53.85C.074 37.141.153 20.431 0 3.724-.027.723.793-.01 3.752 0 37.44.108 71.13.102 104.818.008c2.796-.008 3.538.764 3.53 3.545-.094 33.682-.1 67.366.008 101.049.01 2.999-.81 3.759-3.773 3.75-33.689-.105-67.378-.101-101.066-.004-2.839.009-3.522-.841-3.503-3.576.119-16.973.06-33.948.06-50.922Zm82.87 45.774c.531 0 1.062.005 1.593 0 6.805-.068 13.278-3.757 14.638-9.359 1.297-5.341 1.279-11.932-5.349-16.578-3.882-2.72-8.209-4.397-12.37-6.48-3.086-1.545-4.486-4.828-2.846-7.05 1.992-2.7 4.753-2.926 7.017-.58 3.13 3.244 5.689 1.703 8.475-.265 2.239-1.581 2.647-2.81.48-5.17-5.377-5.85-15.288-6.759-22.045-1.849-3.905 2.838-5.518 7.07-5.177 11.153.46 5.505 3.266 10.314 8.9 12.78 3.438 1.506 6.747 3.308 10.1 5.004 1.937.98 3.196 2.639 2.948 4.755-.265 2.261-1.898 3.445-4.195 4.102-3.569 1.022-7.259.456-9.074-2.195-2.984-4.358-5.716-2.358-8.545-.707-1.934 1.129-3.32 2.479-1.027 5.195 4.415 5.232 9.853 7.404 16.478 7.244ZM48.562 68.817c0 5.161.005 10.322-.001 15.483-.003 2.475-.406 4.71-3.159 5.694-2.783.996-5.343.064-6.665-2.093-1.861-3.036-3.601-1.776-5.557-.654-1.116.64-2.078 1.546-3.189 2.197-1.369.802-1.285 1.636-.575 2.915 2.999 5.401 11.02 8.435 19.104 7.112 5.18-.847 9.68-5.973 10.329-12.28 1.046-10.154.361-20.353.418-30.53.042-7.615 1.776-7.025-7.663-7.076-2.432-.013-3.152.992-3.084 3.354.154 5.288.048 10.585.042 15.878Z"/><path fill="#21200C" d="M82.945 99.624c-6.624.16-12.063-2.012-16.478-7.244-2.292-2.716-.907-4.066 1.027-5.195 2.829-1.651 5.56-3.65 8.545.707 1.815 2.65 5.505 3.217 9.074 2.195 2.297-.657 3.93-1.84 4.195-4.102.248-2.116-1.011-3.775-2.948-4.755-3.353-1.697-6.662-3.498-10.1-5.003-5.634-2.467-8.44-7.276-8.9-12.781-.341-4.083 1.272-8.315 5.177-11.153 6.757-4.91 16.668-4.002 22.045 1.85 2.167 2.359 1.759 3.588-.48 5.169-2.787 1.968-5.345 3.509-8.475.265-2.264-2.346-5.025-2.12-7.017.58-1.64 2.222-.24 5.505 2.846 7.05 4.161 2.083 8.488 3.76 12.37 6.48 6.628 4.646 6.646 11.237 5.35 16.578-1.361 5.602-7.834 9.29-14.64 9.359-.53.005-1.06 0-1.591 0ZM48.564 68.817c.003-5.293.109-10.59-.045-15.878-.068-2.362.652-3.367 3.084-3.354 9.439.05 7.705-.539 7.663 7.075-.057 10.178.628 20.377-.418 30.53-.65 6.308-5.15 11.434-10.33 12.281-8.082 1.323-16.104-1.71-19.103-7.112-.71-1.279-.794-2.113.576-2.915 1.11-.65 2.072-1.558 3.188-2.197 1.956-1.122 3.696-2.382 5.557.654 1.322 2.157 3.882 3.09 6.665 2.093 2.753-.985 3.156-3.22 3.159-5.694.005-5.16.001-10.322.004-15.483Z"/></g><defs><clipPath id="a"><path fill="#fff" d="M0 0h108.356v108.352H0z"/></clipPath></defs></svg>