<svg xmlns="http://www.w3.org/2000/svg" width="30" height="23" fill="none"><g fill="red" clip-path="url(#a)"><path d="M.007 7.45c.286.26.538.533.832.75.68.497 1.378.973 2.075 1.448 2.459 1.678 4.922 3.35 7.382 5.028.63.43 1.235.9 1.928 1.238.621.302 1.252.581 1.937.725.873.184 1.708.053 2.531-.248 1.038-.38 1.945-.974 2.845-1.592 2.615-1.795 5.243-3.572 7.868-5.353.669-.455 1.366-.872 1.964-1.42.204-.186.396-.386.625-.611v.184c0 4.239.002 8.477-.001 12.715 0 1.168-.575 1.986-1.64 2.484a2.346 2.346 0 0 1-1 .201H2.644C1.184 23-.008 21.754 0 20.36c.019-4.26.007-8.519.007-12.777V7.45Z"/><path d="M14.967 0c4.075 0 8.15.002 12.226 0 1.2 0 2.06.539 2.578 1.58.303.61.263 1.261.122 1.907-.191.881-.677 1.608-1.263 2.283-.569.656-1.264 1.163-1.981 1.65-2.973 2.016-5.938 4.042-8.911 6.057-.55.372-1.117.718-1.744.962-.72.279-1.425.248-2.126-.053-.709-.305-1.347-.725-1.979-1.156-2.74-1.867-5.481-3.735-8.221-5.604-.697-.475-1.413-.927-1.992-1.548C1.118 5.479.6 4.856.259 4.108-.26 2.98.059 1.436.887.65 1.354.208 1.925.03 2.559.007 2.66.003 2.761 0 2.861 0h12.106Z"/></g><defs><clipPath id="a"><path fill="#fff" d="M0 0h30v23H0z"/></clipPath></defs></svg>