<svg xmlns="http://www.w3.org/2000/svg" width="106" height="87" fill="none"><g clip-path="url(#a)"><path fill="#6C4786" d="m.468 0 26.086 28.905C33.963 20.813 41.428 12.91 48.59 4.74c4.342-4.95 4.138-5.141 8.665-.176C63.677 11.609 70.163 18.6 76.46 25.756c1.818 2.067 2.724 2.538 4.865.16 7.609-8.457 15.519-16.643 23.36-24.98 1.098 1.284.662 2.666.665 3.93.041 16.961-.02 33.924.12 50.885.018 2.26-.997 3.818-2.237 5.218-7.362 8.314-14.903 16.47-22.242 24.802-1.488 1.69-2.314 1.125-3.433-.099-7.317-8.001-14.746-15.906-21.892-24.057-2.053-2.343-3.309-2.248-5.264-.175-7.324 7.764-14.11 16.016-21.632 23.61-1.959 1.977-2.833 1.859-4.532-.053C16.823 76.654 9.286 68.421 1.79 60.151.798 59.057.097 57.952.098 56.31.108 38.42.032 20.53 0 2.64-.001 2.025.21 1.41.468 0Z"/></g><defs><clipPath id="a"><path fill="#fff" d="M0 0h105.47v86.828H0z"/></clipPath></defs></svg>