<svg xmlns="http://www.w3.org/2000/svg" width="103" height="102" fill="none"><g clip-path="url(#a)"><path fill="#C32C51" d="m58.537.478 1.041-.416.311.11.282-.172 2.542.39c3.618 3.934 3.624 4.342-.386 8.018-.685.627-1.606.949-.383 2.203 1.49-2.436 4.848-2.993 5.552-6.13 1.055-2.14 2.656-2.565 4.603-1.288 6.456 4.238 9.777 10.076 8.93 17.951-.746 6.92-4.694 11.413-10.847 14.234-.636.291-1.665.112-1.788 1.529 5.05 1.377 9.004-.85 12.977-3.519 4.255-2.858 4.958-7.758 7.086-11.927 14.705 15.847 19.377 40.962 5.88 59.819-1.131-2.692-.112-5.402-1.084-8.531-2.848 4.521-3.775 9.482-6.617 13.442-2.913 4.059-6.147 7.739-10.84 10.523 1.132-4.007 4.824-6.819 3.56-11.146.86.323 1.491.205 1.48-.876-.003-.332-.154-.757-.677-.596-.783.24-.661.942-.752 1.532-5.281 4.794-10 10.236-16.832 13.137-3.794 1.611-7.663 2.645-12.008 2.947 1.96-1.606 3.911-3.223 5.885-4.812.609-.49 1.367-.819 1.901-1.372 1.21-1.25 3.786-2.3 2.67-4.204-.828-1.412-3.208-.124-4.81.268-1.088.266-1.998 1.286-3.556.39 6.142-6.644 11.648-13.557 9.338-23.367-3.69 11.891-14.765 20.11-28.34 18.263-2.045-.278-4.11-.833-5.99-1.662-.586-.258-2.847-.959-1.052-2.792 1.11-1.134-.47-1.792-.877-2.642-1.652-3.449-3.702-6.824-1.335-10.784 1.06-1.773 2.3-3.161 4.555-3.352 2.915-.246 4.58.329 3.943 3.907-.606 3.408 1.505 5.89 4.576 6.002 3.539.13 3.614-2.732 4.205-5.167 1.461.595.427 2.335 1.552 2.897 3.24-.01 2.422-7.603 7.946-3.465-.15-6.905-3.582-11.67-7.632-15.91-7.36-7.703-16.649-9.791-26.934-8.286-.742.109-1.785.328-2.084.845-.627 1.084-1.565 1.758-2.415 2.564-.171-2.089-2.617-1.742-3.55-3.529-1.429-2.739-3.996-4.939-6.275-7.168-3.79-3.705-2.794-9.501 2.415-10.78 6.253-1.536 11.038-4.78 15.741-9.08 7.67-7.012 17.355-7.433 27.142-6.054 3.26.459 6.47 1.308 9.68 2.07 1.87.443 2.758.174 2.396-2.064-.295-1.821.029-3.646.486-5.486.515-2.07.184-4.159-1.609-5.703a2.065 2.065 0 0 0-.002-.761Z"/></g><defs><clipPath id="a"><path fill="#fff" d="M0 0h102.336v101.712H0z"/></clipPath></defs></svg>