<svg xmlns="http://www.w3.org/2000/svg" width="101" height="90" fill="none"><path fill="#9ECEEC" d="M29.456.135c7.652.038 12.616 3.99 17.394 7.673 3.048 2.35 4.585 1.61 7.028-.425 4.23-3.524 8.893-6.355 14.54-7.188 7.64-1.128 10.02 2.739 11.694 9.047.975 3.673 1.045 7.457.316 11.368-1.235 6.63-.503 7.583 6.18 9.778 4.15 1.362 7.448 3.983 10.363 6.919 4.843 4.879 4.219 11.54-1.458 16.173-3.83 3.125-7.983 5.938-12.942 7.127-3.592.86-2.576 3.791-2.207 5.833.815 4.505.815 8.867-.072 13.356-1.54 7.8-5.803 10.535-14.03 8.792-5.344-1.131-9.617-4.629-13.776-7.945-2.054-1.638-3.172-1.595-4.918.16-3.553 3.573-7.988 5.835-12.62 7.657-7.347 2.892-13.899-1.146-15.092-8.975-.604-3.959-.745-7.78-.062-11.783.976-5.716.113-6.915-5.274-8.593-5.664-1.764-9.828-5.392-13.175-10.058-2.664-3.715-1.213-9.343 2.962-12.921 3.71-3.18 8.014-5.329 12.484-7.042 2.887-1.107 3.439-2.962 3.13-5.565-.575-4.842-1.668-9.72.023-14.514 2.088-5.921 3.672-9.492 9.512-8.874ZM51.31 28.853c-2.973 0-4.85.174-6.682-.041-2.791-.328-4.456.84-5.648 3.264-.914 1.858-2.135 3.566-3.225 5.337-2.813 4.575-3.934 8.412-.467 14.01 3.915 6.32 7.427 9.839 15.469 9.538 6.406-.24 10.106-2.324 13.073-7.634 2.874-5.145 5.208-9.693 1.084-15.527-3.755-5.31-6.254-11.755-13.604-8.947Zm22.41 16.319c1.082 2.727 2.567 5.528 3.262 8.514.588 2.527 2.032 2.63 3.732 2.07 4.104-1.35 8.029-3.229 11.319-6.04 3.72-3.179 3.672-5.324.514-9.142-3.428-4.145-8.124-5.97-13.085-7.36-.793-.222-1.751-.463-2.066.456-1.264 3.696-2.39 7.439-3.675 11.502ZM30.568 4.832c-2.084-.136-3.38.8-4.272 2.476-2.994 5.615-1.884 11.444-.876 17.258.17.983.784 1.526 1.925 1.602 6.665.439 14.69-4.142 17.567-10.062.498-1.025.806-2.087.007-2.962-3.916-4.288-9.102-6.378-14.35-8.312ZM75.472 71.94c0-1.453.06-2.909-.011-4.358-.214-4.367-2.542-5.916-6.527-4.012-1.373.656-2.646 1.208-4.072 1.027-2.299-.292-3.723.824-4.893 2.555-1.387 2.052-2.758 4.093-4.76 5.656-1.502 1.172-1.18 2.356.196 3.583 3.422 3.052 7.15 5.46 11.623 6.74 5.358 1.533 6.272 1.155 8.117-4.118.812-2.319.222-4.719.327-7.073Zm-50.818 1.214c0 1.587-.153 3.192.028 4.758.536 4.631 4.223 7.967 7.526 6.328 4.387-2.178 9.156-3.923 12.522-7.831.711-.826 1.523-1.354.64-2.628-3.843-5.545-8.227-10.18-15.567-10.679-2.431-.164-3.933.275-4.599 2.98-.583 2.371-.526 4.708-.55 7.072Zm50.879-57.14h-.047c0-1.586.134-3.186-.025-4.756-.478-4.693-3.9-7.46-7.662-5.913-4.09 1.682-8.174 3.39-11.485 6.647-1.908 1.877-1.866 3.36-.445 5.086 3.287 3.994 6.137 8.023 12.421 8.422 6.048.384 7.034.394 7.237-5.916.038-1.188.006-2.38.006-3.57ZM26.354 44.742c-1.16-3.396-2.327-6.99-3.643-10.53-.293-.788-1.363-.879-2.112-.68-5.492 1.457-10.71 3.43-14.134 8.369-1.605 2.315-1.082 4.416.708 6.437 3.234 3.65 7.704 5.305 11.89 7.378 1.061.525 3.045.91 3.619-.409 1.44-3.312 2.411-6.83 3.672-10.565Zm44.575 5.236c-1.697 2.858-2.96 4.97-4.208 7.09-.525.893-.853 1.931.667 1.903 1.767-.034 3.838.714 5.217-.912 1.169-1.379.01-2.638-.632-3.94-.493-.999-.578-2.2-1.044-4.14Zm-41.626.52c-.733 2.135-1.3 3.847-1.91 5.543-.435 1.206-.117 2.072 1.09 2.508 1.63.587 3.486 1.023 4.944.167 1.22-.717-.157-1.859-.597-2.656-.997-1.804-2.198-3.496-3.527-5.561Zm-.048-13.164c2.015-1.94 4.908-3.698 4.182-6.314-.412-1.484-4.115-1.203-5.336-.233-2.87 2.28 1.513 4.082 1.154 6.547Zm36.182-6.554c2.67 2.265 2.838 5.306 6.379 7.058-1.283-2.965 2.494-4.52.817-6.594-1.393-1.724-4.055-.82-7.196-.464ZM50.235 65.39c-1.174.723-3.644-1.033-3.693 1.342-.033 1.595 1.497 3.803 3.397 3.823 2.018.02 3.772-1.965 3.836-3.82.074-2.15-2.267-.782-3.54-1.345Zm-.41-41.947c1.173-.675 3.639.984 3.683-1.231.028-1.387-1.533-3.672-3.555-3.556-1.903.11-3.335 2.241-3.437 3.749-.118 1.732 2.099.534 3.31 1.038Z"/><path fill="#9ECEEC" d="M58.97 44.638c0 5.2-3.995 9.436-8.9 9.437-4.833.002-9.542-4.868-9.44-9.76.098-4.686 4.404-8.791 9.32-8.885 5.447-.103 9.02 3.543 9.02 9.208Z"/></svg>