<svg xmlns="http://www.w3.org/2000/svg" width="109" height="109" fill="none"><g clip-path="url(#a)"><path fill="#4A7ABC" d="M54.117.072c16.84 0 33.68.077 50.519-.071 2.987-.027 3.778.776 3.769 3.752-.103 33.541-.105 67.083-.001 100.624.009 3.142-.906 3.979-4.028 3.969-33.547-.111-67.094-.113-100.64.005-3.056.01-3.736-.885-3.727-3.795C.105 71.015.113 37.473 0 3.932-.01.769.901-.026 3.996.002c16.706.15 33.414.07 50.12.07ZM83.11 49.47c-8.586-.203-13.522 3.402-15.288 10.711-1.494 6.186 1.9 12.567 8.248 15.66 3.635 1.771 7.264 3.565 10.8 5.52 1.566.868 2.53 2.362 2.132 4.325-.392 1.934-1.374 3.541-3.363 4.05-3.33.85-7.173.94-9.31-1.628-3.074-3.693-5.62-3.02-9.032-1.025-2.613 1.528-2.81 2.968-.868 5.081 3.113 3.389 7.096 5.155 11.365 6.635 5.777 2.005 15.459-.492 18.966-5.39 5.39-7.531 2.536-17.736-7.224-22.305-2.741-1.283-5.513-2.506-8.21-3.874-3.592-1.821-4.846-5.054-2.593-7.69 1.976-2.311 4.62-1.852 6.978-.049.514.393 1.15.627 1.66 1.025 3.53 2.762 5.167-.984 7.115-2.402 2.457-1.79.1-3.47-1.198-4.747-2.964-2.915-6.634-4.13-10.178-3.897ZM37.406 78.437c0 5.425.182 10.86-.06 16.275-.183 4.108 2.34 4.076 5.137 3.997 2.704-.076 5.693.677 5.573-3.915-.23-8.728-.068-17.467-.066-26.201.001-10.064.004-10.21 9.849-10.095 3.272.038 4.085-1.072 3.976-4.11-.1-2.778-.033-4.768-3.883-4.678-10.187.24-20.383.144-30.574.036-2.41-.025-3.173.713-3.17 3.154.006 6.758-.276 5.382 5.434 5.51 1.455.033 2.927.139 4.364-.024 2.636-.298 3.508.824 3.454 3.377-.117 5.555-.036 11.115-.034 16.674Z"/></g><defs><clipPath id="a"><path fill="#fff" d="M0 0h108.405v108.351H0z"/></clipPath></defs></svg>