<svg xmlns="http://www.w3.org/2000/svg" width="93" height="102" fill="none"><g fill="#A4C361" clip-path="url(#a)"><path d="M34.209 56.741c.002 6.233-.323 12.486.074 18.693.703 10.993-9.385 14.216-17.53 10.907-4.32-1.754-8.324-4.354-12.316-6.824-2.81-1.739-4.42-4.374-4.41-7.873C.058 57.986.092 44.327 0 30.669c-.025-3.826 1.499-6.54 4.75-8.388 10.687-6.074 21.345-12.2 32.094-18.163 1.82-1.01 3.334-2.407 5.307-3.264 4.661-2.026 8.509-.085 12.27 2.058 11.046 6.293 21.978 12.787 33.015 19.096 3.464 1.98 5.127 4.805 5.128 8.71.004 13.26-.014 26.521.016 39.782.011 4.894-2.394 8.205-6.526 10.508-10.142 5.652-20.311 11.256-30.386 17.026-4.129 2.365-8.131 5.434-13.114 3.048-4.337-2.078-8.39-4.752-12.552-7.19-.685-.402-1.33-.834-.59-1.853 1.115-1.533 6.577-3.033 8.079-1.77 6.373 5.363 12.015 3.883 18.485-.448 8.238-5.514 17.187-9.973 25.874-14.806 2.249-1.251 3.513-2.664 3.475-5.528-.163-12.33-.088-24.664-.05-36.997.005-1.938-.13-3.538-2.125-4.682-11.015-6.314-22.12-12.479-33.084-18.86-4.381-2.551-7.25-.497-10 1.184-10.038 6.14-20.492 11.534-30.604 17.53-1.661.985-2.319 2.208-2.306 4.182.08 12.73.035 25.46.052 38.19.001 1.029-.4 2.388.584 2.985 4.35 2.636 8.347 6.115 13.56 6.922 3.514.544 5.713-2.033 5.725-6.32.036-12.731.067-25.462-.029-38.191-.02-2.672.84-3.89 3.599-3.95 2.485-.055 3.638.705 3.597 3.382-.11 7.291-.038 14.586-.035 21.88Z"/><path d="M57.186 31.073c3.797.21 7.662-.293 11.255 1.626 3.425 1.83 5.772 4.53 6.797 8.192.374 1.336 1.166 3.638-.8 4.154-1.938.508-4.778 1.538-6.06-1.074-3.778-7.696-10.587-6.004-16.895-5.653-2.154.12-4.088 1.505-4.402 3.86-.36 2.691 2.012 3.208 3.864 3.607 4.245.916 8.548 1.563 12.83 2.305 2.84.492 5.66 1.14 8.202 2.492 4.27 2.272 5.47 6.102 4.987 10.674-.524 4.98-3.897 7.826-8.053 9.307-8.752 3.12-17.523 3.003-25.89-1.616-2.953-1.63-5.37-6.47-4.956-9.764.162-1.292.59-2.285 2.169-2.259 1.958.033 4.502-.505 5.113 1.883.995 3.89 3.582 6.057 7.068 6.364 5.043.444 10.346 1.355 15.062-1.616 1.545-.973 1.363-2.753 1.255-4.314-.103-1.484-1.022-2.433-2.492-2.688-5.333-.926-10.693-1.7-16.002-2.744-4.863-.955-9.207-2.49-10.707-8.238-1.321-5.057 1.405-10.995 6.357-13.016 3.688-1.505 7.47-1.477 11.298-1.482Z"/></g><defs><clipPath id="a"><path fill="#fff" d="M0 0h92.58v101.945H0z"/></clipPath></defs></svg>