<svg xmlns="http://www.w3.org/2000/svg" width="108" height="114" fill="none"><g clip-path="url(#a)"><path fill="#A03335" d="M52.758.109c4.102-.644 7.525 1.736 11.146 2.843 10.708 3.276 21.204 7.244 31.8 10.894 3.19 1.1 6.425 2.082 9.66 3.05 2.017.603 2.649 1.937 2.428 3.909-.56 4.992-.885 10.019-1.667 14.975-1.046 6.626-1.893 13.264-2.642 19.93-1.175 10.469-2.871 20.878-4.07 31.345-.281 2.452-2.317 2.524-3.465 3.17-13.603 7.652-27.354 15.041-41.063 22.505-.7.38-1.374.821-2.152.185l.047-43.365c2.512-.05 5.083.23 7.523-.212 6.161-1.116 10.163.86 11.623 7.176a8.83 8.83 0 0 0 .626 1.844c4.564 9.466 1.565 7.845 11.728 8.272 3.995.168 3.35-1.583 2.29-3.82-8.968-18.92-17.859-37.88-27.07-56.682-2.077-4.24-3.036-9.159-6.741-12.545L52.757.109Z"/><path fill="#C5373B" d="m52.78 69.55-.047 43.365c-11.8-5.694-22.743-13.045-34.617-18.503-7.986-3.67-11.827-8.506-11.704-17.55.112-8.143-1.524-16.322-2.6-24.43-1.318-9.945-1.924-19.98-3.675-29.855-.56-3.166.612-4.595 3.246-5.506 12.654-4.373 25.331-8.678 37.95-13.147C45.123 2.583 48.774.86 52.758.11l.001 13.474c.154 1.625-1.173 2.603-1.756 3.901-6.02 13.412-12.126 26.786-18.214 40.167-3.777 8.302-7.568 16.597-11.346 24.898-1.18 2.59-1.04 3.968 2.515 3.962 8.52-.015 8.514.141 11.425-7.899.398-1.097.96-2.136 1.336-3.239 2.036-5.974 2.024-5.994 8.135-5.972 2.643.01 5.285.097 7.927.149Z"/><path fill="#F3F4F8" d="M52.78 69.55c-2.642-.052-5.284-.139-7.927-.149-6.111-.022-6.1-.002-8.135 5.972-.376 1.104-.939 2.142-1.336 3.24-2.91 8.04-2.905 7.883-11.425 7.898-3.554.006-3.694-1.372-2.515-3.962 3.778-8.3 7.57-16.596 11.346-24.898 6.089-13.381 12.194-26.755 18.215-40.167.582-1.298 1.91-2.276 1.755-3.9 3.706 3.385 4.665 8.303 6.742 12.544 9.211 18.803 18.102 37.762 27.07 56.683 1.06 2.236 1.705 3.987-2.29 3.82-10.163-.428-7.164 1.193-11.728-8.273a8.861 8.861 0 0 1-.626-1.844c-1.46-6.317-5.462-8.292-11.623-7.176-2.44.442-5.011.163-7.523.212Zm10.65-10.49c.476-2.96-1.841-4.856-2.843-7.238-1.73-4.117-3.776-8.103-5.75-12.113-.365-.742-.707-1.82-1.883-1.503-.224.06-.236.904-.346 1.387-3.74 5.65-5.342 12.298-8.475 18.238-.536 1.017.084 1.813 1.312 1.755 5.992-.28 12.024.773 17.986-.525Z"/><path fill="#A03335" d="M52.608 39.593c.11-.483.122-1.327.346-1.387 1.176-.318 1.518.76 1.883 1.503 1.974 4.01 4.02 7.996 5.75 12.113 1.002 2.382 3.319 4.279 2.845 7.237-2.512-.02-5.03-.15-7.536-.024-2.368.119-3.294-.71-3.24-3.176.117-5.42-.017-10.844-.047-16.266Z"/><path fill="#C5373B" d="M52.608 39.593c.032 5.422.165 10.847.047 16.266-.053 2.466.873 3.295 3.241 3.176 2.506-.126 5.024.005 7.536.024-5.963 1.3-11.995.248-17.987.527-1.228.058-1.848-.738-1.312-1.755 3.133-5.94 4.735-12.587 8.475-18.238Z"/></g><defs><clipPath id="a"><path fill="#fff" d="M0 0h107.834v113.236H0z"/></clipPath></defs></svg>