<svg xmlns="http://www.w3.org/2000/svg" width="298" height="69" fill="none"><path fill="#fff" d="M114.874 30.234h-14.815v-15.74h14.815c4.444 0 7.977 3.398 7.977 7.814 0 4.303-3.533 7.926-7.977 7.926Zm0-13.362h-12.308v10.871h12.422c3.077 0 5.47-2.491 5.47-5.548 0-2.945-2.507-5.323-5.584-5.323Zm10.029-2.378h2.393v15.627h-2.393V14.494Zm21.083 15.74h-8.548c-4.444 0-7.977-3.51-7.977-7.926s3.533-7.814 7.977-7.814h8.548c2.735 0 5.014 1.36 6.496 3.284l-1.824 1.812c-1.026-1.585-2.735-2.718-4.672-2.718h-8.548c-3.077 0-5.47 2.378-5.47 5.323 0 3.057 2.507 5.548 5.47 5.548h8.548c1.595 0 2.963-.68 3.988-1.698v-1.812h-12.422v-2.491h14.93v5.095c-1.482 2.039-3.761 3.397-6.496 3.397Zm8.547-15.74h2.393v15.627h-2.393V14.494Zm16.382 15.774h-2.394V16.792h-9.8v-2.377h22.108v2.378h-9.8v13.475h-.114Zm30.228-3.658-17.208 1.133-.342 2.378H181.2l2.507-15.627h18.006l2.507 15.627h-2.507l-.57-3.51Zm-16.752-1.245-.228 1.246 16.866-1.133-.227-1.132-16.411 1.02Zm1.368-8.493-1.14 7.134 16.069-1.132-1.026-6.115h-13.903v.113Zm20.627-2.378h2.393v13.25h17.094v2.377h-19.601V14.494h.114Zm-93.677 41.559h-4.901c-4.444 0-7.977-3.51-7.977-7.927v-7.813h2.393v7.813c0 3.057 2.507 5.549 5.584 5.549h4.901c3.077 0 5.47-2.492 5.47-5.55v-7.813h2.393v7.814c0 4.303-3.419 7.927-7.863 7.927Zm12.422-12.57V55.94h-2.394V40.312h2.394l15.954 12.457V40.313h2.394v15.626h-2.394l-15.954-12.456Zm20.741-3.17h2.393v15.626h-2.393V40.312Zm15.954 15.74c-1.823 0-3.418-1.02-4.33-2.492l-7.522-13.248h2.849l6.838 11.89c.456.792 1.254 1.358 2.165 1.358h6.496l2.166-13.248h2.507l-2.507 15.626h-8.662v.114Zm12.764-15.74h20.855v2.377h-18.462v3.51h17.209v2.379h-17.209v4.982h19.602v2.378h-22.109V40.312h.114Zm39.089 8.379h-12.877v7.36h-2.394v-15.74h16.411c2.393 0 4.33 1.925 4.33 4.303 0 1.812-1.025 3.284-2.621 3.964l4.445 7.474h-2.849l-4.445-7.36Zm1.026-6.002h-13.903v3.51h13.903a1.794 1.794 0 0 0 1.823-1.81c0-.907-.797-1.7-1.823-1.7Zm25.869 13.363h-14.929c-1.253 0-2.507-.567-3.419-1.473l1.71-1.698c.456.453 1.026.68 1.709.68h14.929c1.368 0 2.508-1.133 2.508-2.492s-1.14-2.491-2.508-2.491h-14.017c-2.279 0-4.331-1.699-4.331-4.077 0-2.265 1.938-4.303 4.331-4.303h15.157c1.14 0 2.165.453 2.963 1.246l-1.595 1.698a1.894 1.894 0 0 0-1.368-.566h-15.157c-.912 0-1.823.68-1.823 1.699 0 1.019.911 1.812 1.823 1.812h14.017c2.735 0 4.901 2.264 4.901 4.869 0 2.83-2.166 5.096-4.901 5.096Zm19.602 0h-4.901c-4.444 0-7.977-3.51-7.977-7.927v-7.813h2.393v7.813c0 3.057 2.507 5.549 5.584 5.549h4.901c3.077 0 5.47-2.492 5.47-5.55v-7.813h2.393v7.814c.114 4.303-3.419 7.927-7.863 7.927Zm34.53-12.57c-11.054 8.72-11.054 8.72-11.054 8.606l-11.054-8.606V55.94h-2.393V40.312h2.393l11.054 8.72 11.054-8.72h2.394V55.94h-2.394V43.483Z"/><path stroke="#fff" stroke-miterlimit="10" stroke-width=".8" d="m47.636 40.539 15.841-2.038"/><path fill="#fff" d="M4.33 18.005 14.588 6.907l-4.558 9.626-5.698 1.472Z" opacity=".36"/><path fill="#fff" d="m.57 31.593 3.76-13.588 5.699-1.472-9.46 15.06Zm2.051 13.249L.57 31.593l3.533 8.833-1.482 4.416Zm5.584 11.777L2.621 44.842l1.482-4.416 4.102 16.193Zm14.587 9.285L8.205 56.62l10.37 3.17 4.217 6.115Zm18.006 1.926-18.006-1.926 6.268-1.359 11.738 3.284Zm10.372-2.492c-3.42.793-6.725 1.699-10.144 2.491.57-1.245 1.14-2.378 1.596-3.623l8.547 1.132Zm11.965-7.134L51.17 65.338l8.89-9.398 3.076 2.264Z" opacity=".36"/><path fill="#fff" d="M68.833 47.22a504.387 504.387 0 0 0-5.698 10.984l-3.077-2.151c2.85-2.944 5.812-5.889 8.775-8.833Zm1.14-12.796c-.342 4.303-.684 8.493-.912 12.796l-2.393-4.416 3.305-8.38ZM27.123 1.472 14.587 6.908l8.091.113 4.445-5.549ZM43.761.793l-16.638.68 9.003 1.81 7.636-2.49Z" opacity=".36"/><path fill="#fff" d="M57.893 7.247 43.76.793l9.231 7.134 4.9-.68Zm9.117 10.418L57.893 7.247l-4.9.68 14.017 9.738Zm3.077 8.945-3.077-8.945-.114 9.739 3.19-.793Zm-.114 7.814.114-7.813-3.191.793 3.077 7.02ZM29.06 64.546l11.966 3.397 1.596-3.624-13.562.227ZM18.576 59.79l4.216 6.114 6.268-1.358-10.484-4.756ZM8.205 56.619l10.37 3.17-6.723-7.36-3.647 4.19Z" opacity=".36"/><path fill="#fff" d="m4.103 40.426 4.102 16.193 3.647-4.19-7.75-12.003ZM.57 31.593l3.533 8.833 2.393-5.322-5.926-3.51Z" opacity=".36"/><path fill="#fff" d="m10.029 16.533-9.46 15.06s5.585 4.983 5.927 3.51c.228-1.471 3.533-18.57 3.533-18.57ZM22.678 7.02l-8.09-.113 1.48 6.342 6.61-6.228Z" opacity=".36"/><path fill="#fff" d="m10.029 16.533 4.558-9.626 1.482 6.342-6.04 3.284ZM27.123 1.472l-4.445 5.549h11.397l-6.952-5.549Z" opacity=".36"/><path fill="#fff" d="m36.126 3.284-9.003-1.812 6.952 5.549 2.051-3.737Zm16.866 4.643L43.763.793l-7.636 2.49 16.867 4.644Zm14.018 9.738L52.992 7.927l9.46 10.417 4.558-.679Z" opacity=".36"/><path fill="#fff" d="m66.896 27.404.114-9.739-4.559.68 4.445 9.059Zm3.077 7.02-3.077-7.02L63.477 38.5l6.496-4.077Zm-3.305 8.38 3.305-8.38-6.496 4.077 3.19 4.303Zm-6.61 13.136 8.89-8.72-2.28-4.416-6.61 13.135Zm-17.436 8.379 8.547 1.02-1.253-3.964-7.294 2.944Zm17.436-8.379-10.142 5.435 1.253 3.963 8.89-9.398Zm-48.206-3.511 6.724 7.36 10.598-4.642-17.322-2.718Z" opacity=".36"/><path fill="#fff" d="M29.06 64.546c0-.906.114-9.4.114-9.4l13.448 9.173-13.562.227Zm30.998-8.606-10.142 5.435 1.481-10.305 8.661 4.87Z" opacity=".36"/><path fill="#fff" d="M4.33 18.345c-.113 0-.227-.114-.341-.227a.343.343 0 0 1 0-.453l10.37-11.097a.348.348 0 0 1 .456 0c.114.113.228.34.114.453l-4.672 9.625c0 .113-.114.113-.228.226L4.33 18.345Zm9.004-9.512L5.47 17.325l4.33-1.132 3.534-7.36Z"/><path fill="#fff" d="M.57 31.933H.456c-.114-.113-.228-.227-.228-.453l3.76-13.589c0-.113.115-.226.229-.226l5.698-1.472c.114 0 .342 0 .342.113.114.113.114.227 0 .34l-9.46 15.06a.243.243 0 0 1-.227.227Zm3.988-13.589L1.481 29.442l7.75-12.23-4.673 1.132Z"/><path fill="#fff" d="M2.621 45.182c-.228 0-.342-.113-.342-.34L.228 31.593c0-.226.114-.34.228-.34.228 0 .342 0 .456.227l3.533 8.833v.226l-1.482 4.416c-.114.114-.228.227-.342.227ZM1.368 34.538l1.367 8.832 1.026-2.944-2.393-5.888Z"/><path fill="#fff" d="M8.205 56.959c-.114 0-.228-.114-.342-.227L2.28 44.955v-.226l1.482-4.416c0-.114.228-.227.342-.227.114 0 .342.113.342.227l4.102 16.193c0 .226 0 .34-.228.453h-.114ZM2.963 44.842l3.989 8.38-2.963-11.55-1.026 3.17Z"/><path fill="#fff" d="M22.792 66.244h-.228L7.977 56.959c-.114-.114-.228-.34-.114-.454.114-.113.228-.226.456-.226l10.37 3.17c.115 0 .115.114.229.114l4.216 6.115a.343.343 0 0 1 0 .453c-.114.113-.228.113-.342.113Zm-12.194-8.493 10.94 6.908-3.19-4.643-7.75-2.265Z"/><path fill="#fff" d="M40.798 68.17c-.114 0-.114 0 0 0l-18.006-1.926c-.228 0-.341-.113-.341-.34 0-.226.113-.34.227-.34l6.268-1.358h.228l11.624 3.284c.228 0 .342.226.228.453 0 .113-.114.226-.228.226Zm-15.84-2.379 11.624 1.246-7.636-2.152-3.988.906Z"/><path fill="#fff" d="M41.026 68.282c-.114 0-.228 0-.228-.113-.114-.113-.114-.226 0-.34l1.596-3.623c.114-.114.228-.227.342-.227l8.547 1.133c.114 0 .342.113.342.34 0 .113-.114.339-.228.339l-10.37 2.491Zm1.824-3.623-1.254 2.717 7.636-1.925-6.382-.792Z"/><path fill="#fff" d="M51.169 65.678c-.114 0-.228 0-.228-.114a.343.343 0 0 1 0-.452l8.775-9.4a.348.348 0 0 1 .456 0l3.077 2.152c.114.114.114.227.114.34 0 .113-.114.227-.114.34L51.283 65.79c0-.113 0-.113-.114-.113Zm8.89-9.172-6.839 7.247 9.231-5.549-2.393-1.699Z"/><path fill="#fff" d="M63.135 58.544c-.114 0-.114 0-.228-.113l-3.077-2.152c-.114-.113-.114-.113-.114-.226 0-.114 0-.227.114-.227l8.89-8.832a.348.348 0 0 1 .455 0c.114.113.228.34.114.453L63.591 58.43c-.228 0-.228.113-.456.113Zm-2.621-2.605 2.393 1.699 4.445-8.606-6.838 6.907Z"/><path fill="#fff" d="M68.947 47.56c-.114 0-.228-.114-.342-.227l-2.393-4.416c0-.113-.114-.227 0-.34l3.305-8.38c.114-.113.228-.226.456-.226.114 0 .342.227.228.34l-.912 12.796c0 .34-.114.453-.342.453.114 0 .114 0 0 0Zm-1.937-4.756 1.71 3.17.683-9.285-2.393 6.115ZM22.678 7.36h-7.977c-.114 0-.342-.113-.342-.226s0-.34.228-.34L27.01 1.246c.114-.114.342 0 .456.113a.343.343 0 0 1 0 .453L23.02 7.36c-.114-.113-.227 0-.341 0Zm-6.381-.792h6.154l3.418-4.303-9.572 4.303Z"/><path fill="#fff" d="M36.126 3.624 27.01 1.812c-.228 0-.342-.227-.228-.34 0-.226.114-.34.342-.34l16.638-.68c.228 0 .342.114.342.34 0 .227-.114.34-.227.34l-7.75 2.492Zm-6.04-1.926 6.04 1.246L41.14 1.36l-11.054.34Z"/><path fill="#fff" d="M52.992 8.266c-.113 0-.113 0-.227-.113L43.533 1.02c-.114-.113-.228-.34-.114-.453.114-.113.228-.226.456-.113L58.12 6.907c.114.114.228.227.228.34 0 .113-.114.227-.342.34l-5.014.68Zm-6.61-5.888 6.724 5.209 3.647-.566-10.37-4.643Z"/><path fill="#fff" d="M67.01 18.005c-.114 0-.114 0-.228-.113l-14.017-9.74c-.114-.113-.228-.226-.114-.34 0-.113.114-.226.341-.226l5.015-.68c.114 0 .228 0 .342.114l9.117 10.418a.343.343 0 0 1 0 .453c-.228.113-.342.113-.456.113ZM53.904 8.153l11.054 7.587-7.18-8.153-3.874.566Z"/><path fill="#fff" d="M66.896 27.743c-.114 0-.114 0-.228-.113s-.114-.226-.114-.34l.228-9.738c0-.227.114-.34.342-.34.228 0 .342.113.342.227l3.077 8.945v.227c0 .113-.114.113-.228.226l-3.42.906Zm.456-8.04-.114 7.248 2.393-.68-2.28-6.568Z"/><path fill="#fff" d="M69.973 34.764c-.114 0-.228-.113-.342-.227l-3.077-7.02v-.34c0-.113.114-.113.228-.226l3.19-.906c.115 0 .229 0 .343.113.114.113.114.226.114.34l-.114 7.813c0 .34-.114.453-.342.453Zm-2.621-7.134 2.279 5.096.114-5.775-2.393.679ZM41.026 68.282l-12.08-3.397c-.114 0-.228-.226-.228-.34 0-.226.114-.34.342-.34l13.562-.226c.114 0 .228.114.342.114.114.113.114.226 0 .34l-1.596 3.623c-.114.113-.228.226-.342.226Zm-9.572-3.397 9.344 2.605 1.254-2.831-10.598.226Z"/><path fill="#fff" d="M22.792 66.244c-.114 0-.228 0-.341-.113l-4.217-6.115v-.453c.114-.113.228-.113.456-.113l10.484 4.756c.114.113.228.226.228.34 0 .113-.114.226-.228.34l-6.382 1.358c.114 0 .114 0 0 0Zm-3.19-5.662 3.418 4.87 5.015-1.133-8.433-3.737Z"/><path fill="#fff" d="M18.576 60.13 8.09 56.958c-.114 0-.228-.114-.228-.227s0-.226.114-.34l3.647-4.19c.114-.113.114-.113.228-.113s.228 0 .228.114l6.724 7.36a.343.343 0 0 1 0 .453s-.114.113-.228.113Zm-9.8-3.738 8.66 2.605-5.584-6.115-3.077 3.51Z"/><path fill="#fff" d="M8.205 56.959c-.114 0-.114 0 0 0-.228 0-.342-.114-.342-.227L3.761 40.426c0-.113 0-.34.228-.453.114-.113.342 0 .456.113l7.749 12.003a.343.343 0 0 1 0 .453l-3.647 4.19c-.228.227-.342.227-.342.227ZM5.015 42.35l3.418 13.475 3.077-3.51-6.496-9.965Z"/><path fill="#fff" d="M4.103 40.766c-.114 0-.228-.114-.342-.227L.228 31.707c-.114-.114 0-.34.114-.453h.342l5.926 3.51c.228.113.228.34.228.453l-2.393 5.209c-.114.226-.228.34-.342.34Zm-2.85-8.38 2.85 7.02 1.937-4.189-4.786-2.831Z"/><path fill="#fff" d="M6.154 35.67c-1.368 0-4.445-2.718-5.812-3.85-.114-.114-.114-.34-.114-.453l9.459-15.06c.114-.114.228-.227.456-.114.114.113.227.226.227.34 0 .226-3.19 17.099-3.532 18.57 0 .227-.228.453-.456.453-.114.114-.114.114-.228.114Zm-5.128-4.19c2.393 2.038 4.672 3.624 5.128 3.51.228-1.132 2.28-12.23 3.19-16.759L1.027 31.48Zm15.043-17.891c-.114 0-.114 0 0 0-.228 0-.342-.114-.342-.227l-1.368-6.341c0-.113 0-.227.114-.34.114-.113.114-.113.228-.113h7.977c.114 0 .228.113.342.226 0 .114 0 .34-.114.34l-6.61 6.228c-.113.227-.227.227-.227.227Zm-1.026-6.342 1.14 5.322 5.584-5.208-6.724-.114Z"/><path fill="#fff" d="M10.029 16.872c-.114 0-.228 0-.228-.113-.114-.113-.114-.226-.114-.453l4.672-9.625c.114-.113.228-.226.342-.226.114 0 .228.113.342.226l1.367 6.341c0 .114 0 .34-.227.34l-6.04 3.284c0 .226-.114.226-.114.226Zm4.444-8.832-3.647 7.7 4.787-2.604-1.14-5.096Zm19.602-.68-11.397-.113c-.114 0-.227-.113-.341-.226-.114-.114 0-.227 0-.34l4.444-5.549c.114-.113.114-.113.228-.113s.228 0 .228.113l6.952 5.662c.114.113.114.227.114.34 0 .226-.114.226-.228.226Zm-10.713-.68h9.687l-5.926-4.755-3.76 4.756Z"/><path fill="#fff" d="M34.075 7.36c-.114 0-.114 0-.228-.113l-6.952-5.662c-.114-.113-.114-.226-.114-.453.114-.113.228-.226.342-.226l9.003 1.812.342.34v.34l-2.051 3.85c-.114.113-.228.113-.342.113Zm-5.698-5.322 5.47 4.417 1.71-3.058-7.18-1.359Z"/><path fill="#fff" d="m52.992 8.266-16.98-4.642c-.114 0-.228-.227-.228-.34 0-.113.114-.34.228-.34L43.648.566c.113 0 .227 0 .341.113l9.231 7.134c.114.114.228.34.114.453-.114-.113-.228 0-.342 0ZM37.38 3.171l13.903 3.963-7.635-5.888L37.38 3.17Z"/><path fill="#fff" d="M62.451 18.684c-.114 0-.228 0-.228-.113L52.764 8.153a.343.343 0 0 1 0-.453c.114-.113.342-.113.456-.113l14.018 9.738c.114.114.228.227.114.34 0 .113-.114.227-.342.227l-4.559.792Zm-7.18-8.72 7.294 8.04 3.647-.565-10.94-7.474Z"/><path fill="#fff" d="M66.896 27.743c-.114 0-.228-.113-.342-.226l-4.445-9.06v-.339c0-.113.114-.113.228-.226l4.673-.68c.114 0 .228 0 .342.113.114.114.114.114.114.227l-.228 9.852c0 .226-.114.34-.342.34Zm-3.989-9.059 3.647 7.36.114-7.926-3.76.566Z"/><path fill="#fff" d="M63.477 38.954c-.114 0-.114 0-.228-.114-.114-.113-.114-.226-.114-.34l3.419-11.096c0-.114.114-.227.342-.227.228 0 .342.113.342.227l3.077 7.02c.114.113 0 .34-.114.453l-6.496 4.077c-.114-.114-.114 0-.228 0Zm3.419-10.531-2.85 9.285 5.471-3.397-2.621-5.888Z"/><path fill="#fff" d="M66.668 43.144c-.114 0-.228 0-.342-.114l-3.19-4.303c-.115-.113-.115-.226-.115-.226 0-.113.114-.227.114-.227l6.496-4.076a.348.348 0 0 1 .456 0c.114.113.114.226.114.453l-3.305 8.38c0 .113-.114.113-.228.113Zm-2.735-4.53 2.507 3.51 2.735-6.794-5.242 3.284Z"/><path fill="#fff" d="M60.058 56.392c-.114 0-.114 0-.228-.113s-.228-.34-.114-.453l6.61-13.135c.114-.114.228-.227.342-.227.114 0 .228.113.342.227l2.393 4.416c.114.113 0 .34-.114.453l-9.003 8.832c-.114-.113-.228 0-.228 0Zm6.61-12.796-5.356 10.645 7.293-7.134-1.937-3.51ZM51.17 65.678l-8.548-1.132c-.114 0-.342-.114-.342-.34 0-.113.114-.34.228-.34l7.293-2.83h.228c.114 0 .114.112.228.226l1.254 3.963c0 .113 0 .226-.114.34 0 .113-.114.113-.228.113Zm-7.067-1.585 6.61.792-.912-3.057-5.698 2.265Z"/><path fill="#fff" d="M51.17 65.678c-.229 0-.343-.113-.343-.227l-1.253-3.963c0-.113 0-.34.114-.453L59.716 55.6c.114-.114.342 0 .456.113a.343.343 0 0 1 0 .453l-8.775 9.399c0 .113-.114.113-.228.113Zm-.8-4.078 1.026 3.058 6.952-7.36L50.37 61.6Zm-31.794-1.47c-.114 0-.228 0-.228-.114l-6.724-7.36c-.114-.114-.114-.227 0-.453.114-.114.228-.227.342-.227l17.322 2.718c.114 0 .228.113.342.34 0 .113-.114.34-.228.34l-10.598 4.642a.355.355 0 0 1-.228.113Zm-5.812-7.248 5.926 6.455 9.345-4.077-15.271-2.378Z"/><path fill="#fff" d="M29.06 64.885c-.114 0-.227 0-.227-.113-.114-.113-.114-.113-.114-.227l.113-9.398c0-.114.114-.227.228-.34.114-.113.228 0 .342 0l13.448 9.172c.114.113.228.227.114.34 0 .113-.228.226-.342.226l-13.562.34Zm.456-9.059-.114 8.38 12.08-.227-11.966-8.153ZM6.496 35.443c-.114 0-.228 0-.228-.113-.114-.113-.114-.226-.114-.34l3.533-18.457c0-.114.114-.227.228-.227s.228 0 .342.113l13.22 16.193c.113.114.113.227 0 .34 0 .113-.115.227-.229.227L6.496 35.443Zm3.76-18.118L6.953 34.651l15.613-2.152-12.308-15.174Zm52.195 1.359-15.612-.113c-.114 0-.228-.113-.342-.227-.114-.113-.114-.226 0-.34L52.65 7.7l.227-.226c.114 0 .228 0 .342.113l9.46 10.418c.113.113.113.226.113.34-.114.34-.228.34-.342.34Zm-15.043-.793 14.132.114-8.547-9.512-5.585 9.399Zm2.508 43.937c-.114 0-.114 0-.228-.114-.114-.113-.114-.226-.114-.34l1.481-10.417c0-.113.114-.227.228-.227h.342l8.547 4.983c.114.113.228.226.228.34 0 .113-.114.226-.228.34l-10.029 5.322c-.114 0-.114.113-.227.113Zm1.823-10.192-1.254 9.173 8.89-4.756-7.636-4.417Zm-33.961 1.586c-.114-.114-.114-.114-.114-.227l.798-13.928c0-.113.114-.227.114-.227.114-.113.228-.113.342 0l12.422 6.002c.114 0 .227.113.227.227 0 .113-.113.226-.113.34L18.12 53.334c-.114 0-.228 0-.342-.113Zm1.368-13.702-.798 12.796 12.194-7.36-11.396-5.436Z"/><path fill="#fff" d="m46.839 18.57-14.588-.792c-.114 0-.228 0-.228-.113-.114-.113-.114-.226-.114-.226L33.62 7.02c0-.114.114-.227.228-.227s.228 0 .342.113l12.763 11.211c.114.113.114.226.114.453h-.227ZM32.707 17.1l13.106.793L34.303 7.7l-1.596 9.4Zm18.69 34.083-11.396-1.472c-.114 0-.228-.113-.342-.226 0-.114 0-.227.114-.34l7.521-7.36c.114-.114.228-.114.342-.114.114 0 .228.114.228.227l3.875 8.832v.34c-.114.113-.228.113-.342.113Zm-10.599-2.151 10.03 1.359-3.42-7.814-6.61 6.455Zm-11.51-47.56c0 .793-.683 1.472-1.481 1.472s-1.482-.68-1.482-1.472C26.325.68 27.01 0 27.807 0c.912 0 1.481.68 1.481 1.472Zm-19.943 55.6c0 .792-.684 1.472-1.482 1.472-.797 0-1.481-.68-1.481-1.472 0-.793.684-1.472 1.481-1.472.912.113 1.482.679 1.482 1.472ZM2.963 32.273c0 .792-.684 1.472-1.481 1.472-.798 0-1.482-.68-1.482-1.472C0 31.48.684 30.8 1.482 30.8c.911 0 1.481.68 1.481 1.473ZM52.65 65.225c0 .792-.683 1.472-1.48 1.472-.799 0-1.482-.68-1.482-1.472 0-.793.683-1.472 1.481-1.472.798.113 1.482.68 1.482 1.472Z"/><path stroke="#fff" stroke-miterlimit="10" stroke-width=".8" d="M41.14 23.553v11.324l6.382 5.662 6.382-5.662V23.553m-30.77.453V40.54l12.878-7.7-12.878-8.833Z"/><path fill="#fff" d="M24.73 41.105c0 .793-.684 1.472-1.482 1.472-.797 0-1.481-.68-1.481-1.472 0-.792.684-1.472 1.481-1.472.912 0 1.482.68 1.482 1.472Zm23.932 0c0 .793-.684 1.472-1.482 1.472-.797 0-1.481-.68-1.481-1.472 0-.792.684-1.472 1.481-1.472.912 0 1.482.68 1.482 1.472Z"/></svg>