<svg xmlns="http://www.w3.org/2000/svg" width="264" height="62" fill="none"><path fill="#319FDC" d="M101.964 27.683H88.817V13.494h13.147c3.944 0 7.079 3.063 7.079 7.043 0 3.88-3.135 7.146-7.079 7.146Zm0-12.045H91.042v9.799h11.023c2.73 0 4.854-2.246 4.854-5.002 0-2.653-2.225-4.797-4.955-4.797Zm8.899-2.144h2.124v14.087h-2.124V13.494Zm18.71 14.189h-7.585c-3.944 0-7.079-3.165-7.079-7.146 0-3.98 3.135-7.043 7.079-7.043h7.585c2.427 0 4.45 1.225 5.764 2.96l-1.618 1.634c-.91-1.43-2.427-2.45-4.146-2.45h-7.585c-2.731 0-4.854 2.144-4.854 4.797 0 2.756 2.224 5.002 4.854 5.002h7.585c1.416 0 2.629-.613 3.539-1.531v-1.633h-11.023v-2.246h13.248v4.593c-1.314 1.838-3.337 3.063-5.764 3.063Zm7.585-14.189h2.123v14.087h-2.123V13.494Zm14.537 14.219h-2.124V15.566h-8.697v-2.144h19.62v2.144h-8.698v12.147h-.101Zm26.826-3.297-15.271 1.021-.304 2.143h-2.123l2.225-14.086h15.978l2.225 14.087h-2.225l-.505-3.165Zm-14.867-1.123-.202 1.123 14.968-1.02-.203-1.021-14.563.918Zm1.214-7.655-1.011 6.43 14.259-1.02-.91-5.512h-12.338v.102Zm18.305-2.144h2.124v11.943h15.169v2.143h-17.394V13.495h.101Zm-83.131 37.461h-4.348c-3.945 0-7.08-3.164-7.08-7.145v-7.043h2.124v7.043c0 2.756 2.225 5.002 4.956 5.002h4.348c2.731 0 4.855-2.246 4.855-5.002v-7.043h2.123v7.043c0 3.879-3.034 7.145-6.978 7.145Zm11.024-11.33v11.228h-2.124V36.767h2.124l14.158 11.228V36.767h2.124v14.086h-2.124l-14.158-11.228Zm18.406-2.858h2.123v14.086h-2.123V36.767Zm14.158 14.188c-1.618 0-3.034-.918-3.843-2.245l-6.675-11.943h2.529l6.068 10.718c.404.714 1.112 1.225 1.921 1.225h5.765l1.921-11.943h2.225l-2.225 14.086h-7.686v.102Zm11.327-14.188h18.507v2.144h-16.383v3.164h15.271v2.143h-15.271v4.492h17.394v2.143h-19.619V36.767h.101Zm34.688 7.553h-11.428v6.635h-2.123V36.767h14.563c2.123 0 3.843 1.735 3.843 3.879 0 1.633-.911 2.96-2.326 3.572l3.944 6.737h-2.529l-3.944-6.634Zm.91-5.41h-12.338v3.165h12.338c.911 0 1.619-.715 1.619-1.633 0-.817-.708-1.531-1.619-1.531Zm22.957 12.045h-13.248c-1.112 0-2.225-.51-3.034-1.327l1.517-1.53c.405.407.91.612 1.517.612h13.248c1.214 0 2.225-1.021 2.225-2.246s-1.011-2.245-2.225-2.245h-12.439c-2.022 0-3.843-1.532-3.843-3.675 0-2.042 1.719-3.879 3.843-3.879h13.451c1.011 0 1.921.408 2.629 1.123l-1.416 1.53a1.666 1.666 0 0 0-1.213-.51h-13.451c-.809 0-1.618.613-1.618 1.532 0 .918.809 1.633 1.618 1.633h12.439c2.428 0 4.349 2.041 4.349 4.389 0 2.552-1.921 4.593-4.349 4.593Zm17.395 0h-4.349c-3.944 0-7.079-3.164-7.079-7.145v-7.043h2.124v7.043c0 2.756 2.225 5.002 4.955 5.002h4.349c2.731 0 4.854-2.246 4.854-5.002v-7.043h2.124v7.043c.101 3.879-3.034 7.145-6.978 7.145Zm30.643-11.33c-9.81 7.86-9.81 7.86-9.81 7.758l-9.809-7.758v11.228h-2.124V36.767h2.124l9.809 7.86 9.81-7.86h2.124v14.086h-2.124V39.625Z"/><path stroke="#319FDC" stroke-miterlimit="10" stroke-width=".8" d="m42.296 36.971 14.057-1.837"/><path fill="#4A9FDC" d="m3.866 16.659 9.101-10.003-4.045 8.676-5.056 1.327ZM.528 28.907 3.866 16.66l5.056-1.327L.528 28.907ZM2.349 40.85.529 28.907l3.134 7.962L2.35 40.85Zm4.955 10.616L2.35 40.85l1.314-3.98 3.641 14.596Zm12.945 8.37-12.945-8.37 9.203 2.858 3.742 5.512Zm15.979 1.735-15.979-1.735 5.562-1.225 10.417 2.96Zm9.202-2.246c-3.033.715-5.966 1.531-9 2.246.506-1.123 1.011-2.144 1.416-3.267l7.585 1.021Zm10.62-6.43-10.619 6.43 7.888-8.472 2.73 2.042Z" opacity=".36"/><path fill="#4A9FDC" d="M61.106 42.994a457.825 457.825 0 0 0-5.056 9.9l-2.73-1.939c2.528-2.654 5.157-5.307 7.786-7.961Zm1.012-11.534c-.304 3.878-.607 7.655-.81 11.533l-2.123-3.98 2.933-7.554ZM24.092 1.756l-11.124 4.9 7.18.101 3.944-5.001Zm14.765-.612-14.765.612 7.99 1.633 6.775-2.245Zm12.541 5.818-12.54-5.818 8.191 6.43 4.349-.612Z" opacity=".36"/><path fill="#4A9FDC" d="m59.488 16.352-8.09-9.39-4.349.612 12.44 8.778Zm2.731 8.064-2.73-8.064-.102 8.779 2.832-.715Z" opacity=".36"/><path fill="#4A9FDC" d="m62.118 31.46.1-7.044-2.83.715 2.73 6.328ZM25.811 58.61l10.62 3.063 1.415-3.266-12.035.204Zm-9.304-4.286 3.742 5.512 5.562-1.225-9.304-4.287Zm-9.203-2.858 9.203 2.858-5.967-6.635-3.236 3.777ZM3.663 36.87l3.641 14.596 3.236-3.777-6.877-10.82Z" opacity=".36"/><path fill="#4A9FDC" d="m.528 28.907 3.135 7.962 2.124-4.797-5.259-3.165Z" opacity=".36"/><path fill="#4A9FDC" d="M8.922 15.332.528 28.907s4.956 4.492 5.26 3.165c.201-1.327 3.134-16.74 3.134-16.74Zm11.226-8.574-7.18-.102 1.314 5.716 5.866-5.614ZM8.922 15.332l4.045-8.676 1.315 5.716-5.36 2.96Zm15.17-13.576-3.944 5.001H30.26l-6.169-5.001Zm7.989 1.633-7.989-1.633 6.17 5.001 1.82-3.368Z" opacity=".36"/><path fill="#4A9FDC" d="m47.05 7.574-8.193-6.43-6.776 2.245L47.05 7.574Zm12.438 8.778L47.05 7.574l8.394 9.39 4.045-.612Z" opacity=".36"/><path fill="#4A9FDC" d="m59.387 25.13.101-8.778-4.045.613 3.944 8.166Zm2.731 6.33-2.73-6.33-3.035 10.004 5.765-3.675Z" opacity=".36"/><path fill="#4A9FDC" d="m59.185 39.013 2.933-7.554-5.765 3.675 2.832 3.879Zm-5.865 11.84 7.888-7.86-2.023-3.98-5.866 11.84Zm-15.474 7.554 7.585.918-1.112-3.572-6.473 2.654Z" opacity=".36"/><path fill="#4A9FDC" d="m53.32 50.853-9.002 4.9 1.113 3.572 7.888-8.472Zm-42.78-3.164 5.967 6.635 9.405-4.185-15.372-2.45ZM25.811 58.61c0-.816.102-8.471.102-8.471l11.933 8.268-12.035.204Z" opacity=".36"/><path fill="#4A9FDC" d="m53.32 50.853-9.002 4.9 1.315-9.289 7.686 4.39Z" opacity=".36"/><path fill="#319FDC" d="M3.866 16.965c-.102 0-.203-.102-.304-.204a.313.313 0 0 1 0-.409L12.765 6.35a.305.305 0 0 1 .405 0c.1.102.202.306.1.409l-4.146 8.676c0 .102-.1.102-.202.204l-5.056 1.327Zm7.99-8.574-6.979 7.655 3.843-1.02 3.135-6.635Z"/><path fill="#319FDC" d="M.528 29.214h-.1c-.102-.102-.203-.205-.203-.409l3.337-12.248c0-.103.101-.205.203-.205l5.056-1.327c.101 0 .304 0 .304.102.1.102.1.205 0 .307L.73 29.009c0 .102-.102.205-.203.205Zm3.54-12.25-2.73 10.004 6.876-11.024-4.146 1.02Z"/><path fill="#319FDC" d="M2.349 41.156c-.203 0-.304-.102-.304-.306L.225 28.907c0-.204.101-.306.202-.306.202 0 .304 0 .405.204l3.135 7.962v.204l-1.315 3.981c-.101.102-.202.204-.303.204Zm-1.113-9.595 1.214 7.962.91-2.654-2.124-5.308Z"/><path fill="#319FDC" d="M7.304 51.772c-.101 0-.202-.102-.303-.204L2.045 40.952v-.204l1.315-3.98c0-.103.202-.205.303-.205.102 0 .304.102.304.204l3.64 14.597c0 .204 0 .306-.202.408h-.1ZM2.652 40.85l3.54 7.553-2.63-10.411-.91 2.858Z"/><path fill="#319FDC" d="M20.25 60.142h-.203l-12.945-8.37C7 51.67 6.9 51.466 7 51.364c.1-.102.202-.205.404-.205l9.203 2.858c.101 0 .101.103.203.103l3.741 5.512a.313.313 0 0 1 0 .408c-.1.102-.202.102-.303.102ZM9.427 52.486l9.709 6.227-2.832-4.185-6.877-2.042Z"/><path fill="#319FDC" d="M36.228 61.877c-.101 0-.101 0 0 0l-15.979-1.735c-.202 0-.303-.102-.303-.306 0-.205.1-.307.202-.307l5.562-1.225h.203l10.315 2.96c.202 0 .303.205.202.409 0 .102-.1.204-.202.204ZM22.17 59.733l10.315 1.123-6.776-1.94-3.54.818Z"/><path fill="#319FDC" d="M36.43 61.98c-.1 0-.202 0-.202-.103-.101-.102-.101-.204 0-.306l1.416-3.267c.1-.102.202-.204.303-.204l7.585 1.021c.101 0 .304.102.304.306 0 .102-.102.306-.203.306L36.43 61.98Zm1.618-3.267-1.112 2.45 6.776-1.736-5.664-.714Z"/><path fill="#319FDC" d="M45.43 59.632c-.1 0-.201 0-.201-.103a.312.312 0 0 1 0-.408l7.787-8.472a.305.305 0 0 1 .404 0l2.73 1.94c.102.102.102.204.102.306 0 .102-.101.204-.101.306l-10.619 6.533c0-.102 0-.102-.101-.102Zm7.89-8.268-6.069 6.532 8.192-5.001-2.124-1.531Z"/><path fill="#319FDC" d="M56.05 53.2c-.101 0-.101 0-.202-.101l-2.731-1.94c-.101-.102-.101-.102-.101-.204s0-.204.101-.204l7.888-7.962a.306.306 0 0 1 .405 0c.101.102.202.307.101.409l-5.057 9.9c-.202 0-.202.103-.404.103Zm-2.326-2.347 2.124 1.531 3.944-7.757-6.068 6.226Z"/><path fill="#319FDC" d="M61.208 43.3c-.102 0-.203-.102-.304-.204l-2.124-3.981c0-.102-.1-.204 0-.306l2.933-7.554c.101-.102.203-.204.405-.204.1 0 .303.204.202.306l-.81 11.535c0 .306-.1.408-.302.408.1 0 .1 0 0 0Zm-1.72-4.287 1.517 2.858.607-8.37-2.124 5.512ZM20.148 7.064h-7.08c-.1 0-.303-.102-.303-.204s0-.307.202-.307l11.024-5.001c.101-.102.303 0 .404.102a.313.313 0 0 1 0 .408l-3.944 5.002c-.1-.102-.202 0-.303 0Zm-5.663-.715h5.46L22.98 2.47l-8.495 3.88Z"/><path fill="#319FDC" d="m32.081 3.695-8.09-1.633c-.202 0-.303-.204-.202-.306 0-.204.1-.306.303-.306L38.857.837c.203 0 .304.102.304.306 0 .205-.101.307-.203.307l-6.877 2.245Zm-5.36-1.735 5.36 1.123 4.45-1.43-9.81.307Z"/><path fill="#319FDC" d="M47.05 7.88c-.102 0-.102 0-.203-.102l-8.192-6.43c-.101-.103-.202-.307-.101-.409.101-.102.202-.204.404-.102L51.6 6.655c.101.102.202.205.202.307 0 .102-.1.204-.303.306l-4.45.612Zm-5.867-5.308 5.967 4.696 3.236-.51-9.203-4.186Z"/><path fill="#319FDC" d="M59.488 16.659c-.1 0-.1 0-.202-.102l-12.44-8.779c-.1-.102-.201-.204-.1-.306 0-.102.1-.204.303-.204l4.45-.612c.101 0 .202 0 .303.102l8.09 9.39a.313.313 0 0 1 0 .409c-.201.102-.303.102-.404.102Zm-11.63-8.88 9.81 6.838-6.371-7.349-3.439.51Z"/><path fill="#319FDC" d="M59.387 25.437c-.1 0-.1 0-.202-.102-.101-.102-.101-.204-.101-.306l.202-8.779c0-.204.101-.306.303-.306.203 0 .304.102.304.204l2.73 8.064v.204c0 .102-.1.102-.202.204l-3.034.817Zm.405-7.247-.101 6.532 2.123-.612-2.022-5.92Z"/><path fill="#319FDC" d="M62.118 31.765c-.101 0-.203-.102-.304-.204l-2.73-6.328v-.306c0-.103.1-.103.202-.205l2.832-.816c.1 0 .202 0 .303.102.101.102.101.204.101.306l-.1 7.043c0 .306-.102.408-.304.408Zm-2.326-6.43 2.022 4.593.102-5.206-2.124.613ZM36.43 61.98l-10.72-3.063c-.1 0-.202-.204-.202-.306 0-.204.101-.306.303-.306l12.035-.205c.101 0 .202.102.303.102.102.102.102.205 0 .307l-1.415 3.266c-.102.102-.203.204-.304.204Zm-8.495-3.063 8.293 2.348 1.112-2.552-9.405.204Z"/><path fill="#319FDC" d="M20.25 60.142c-.102 0-.203 0-.304-.102l-3.742-5.512v-.408c.1-.102.202-.102.404-.102l9.305 4.287c.1.102.202.204.202.306 0 .102-.101.204-.202.306l-5.664 1.225c.101 0 .101 0 0 0Zm-2.833-5.104 3.034 4.39 4.45-1.021-7.484-3.369Z"/><path fill="#319FDC" d="m16.507 54.63-9.304-2.858c-.101 0-.202-.102-.202-.204s0-.204.1-.306l3.237-3.777c.101-.102.101-.102.202-.102.102 0 .203 0 .203.102l5.966 6.635a.313.313 0 0 1 0 .408s-.1.102-.202.102ZM7.81 51.262l7.686 2.347-4.956-5.512-2.73 3.165Z"/><path fill="#319FDC" d="M7.304 51.772c-.101 0-.101 0 0 0-.202 0-.303-.102-.303-.204L3.36 36.869c0-.102 0-.306.202-.408.101-.102.304 0 .405.102l6.877 10.82a.313.313 0 0 1 0 .408l-3.236 3.777c-.203.204-.304.204-.304.204ZM4.472 38.604l3.034 12.147 2.731-3.164-5.765-8.983Z"/><path fill="#319FDC" d="M3.663 37.175c-.1 0-.202-.102-.303-.204L.225 29.01c-.101-.103 0-.307.101-.409H.63l5.26 3.165c.202.102.202.306.202.408l-2.124 4.695c-.101.204-.202.306-.304.306Zm-2.528-7.553 2.528 6.329 1.72-3.777-4.248-2.552Z"/><path fill="#319FDC" d="M5.484 32.582c-1.214 0-3.944-2.45-5.158-3.47-.101-.102-.101-.307-.101-.409l8.394-13.575c.101-.103.202-.205.404-.103.102.102.203.205.203.307 0 .204-2.832 15.413-3.135 16.74 0 .204-.203.408-.405.408-.101.102-.101.102-.202.102ZM.933 28.805c2.124 1.838 4.146 3.267 4.55 3.165.203-1.021 2.023-11.024 2.832-15.107L.933 28.805Zm13.349-16.127c-.1 0-.1 0 0 0-.202 0-.303-.102-.303-.205l-1.214-5.716c0-.102 0-.204.101-.306.101-.102.101-.102.203-.102h7.079c.101 0 .202.102.303.204 0 .102 0 .306-.1.306l-5.866 5.614c-.102.205-.203.205-.203.205Zm-.91-5.716 1.011 4.797 4.956-4.695-5.967-.102Z"/><path fill="#319FDC" d="M8.922 15.638c-.1 0-.202 0-.202-.102-.101-.102-.101-.204-.101-.409l4.146-8.676c.101-.102.203-.204.304-.204.1 0 .202.102.303.204l1.214 5.716c0 .102 0 .306-.203.306l-5.36 2.96c0 .205-.1.205-.1.205Zm3.944-7.962L9.63 14.617l4.248-2.348-1.012-4.593Zm17.395-.612-10.113-.102c-.101 0-.202-.102-.303-.204-.102-.103 0-.205 0-.307l3.944-5.001c.1-.102.1-.102.202-.102.101 0 .202 0 .202.102l6.17 5.103c.1.102.1.205.1.307 0 .204-.1.204-.202.204Zm-9.506-.613h8.596l-5.259-4.287-3.337 4.287Z"/><path fill="#319FDC" d="M30.261 7.064c-.101 0-.101 0-.202-.102l-6.17-5.104c-.1-.102-.1-.204-.1-.408.1-.102.202-.204.303-.204l7.99 1.633.303.306v.306l-1.82 3.47c-.102.103-.203.103-.304.103Zm-5.056-4.798 4.854 3.981 1.517-2.756-6.372-1.225Z"/><path fill="#319FDC" d="M47.05 7.88 31.98 3.695c-.1 0-.202-.204-.202-.306 0-.102.101-.306.202-.306L38.756.939c.101 0 .203 0 .304.102l8.191 6.43c.102.103.203.307.102.41-.102-.103-.203 0-.304 0ZM33.193 3.287l12.338 3.572-6.776-5.307-5.562 1.735Z"/><path fill="#319FDC" d="M55.443 17.271c-.101 0-.202 0-.202-.102l-8.394-9.39a.313.313 0 0 1 0-.41c.1-.101.303-.101.404-.101l12.44 8.778c.1.102.202.204.1.306 0 .102-.1.204-.303.204l-4.045.715Zm-6.371-7.86 6.472 7.248 3.236-.51-9.708-6.738Z"/><path fill="#319FDC" d="M59.387 25.437c-.1 0-.202-.102-.303-.204l-3.944-8.166v-.306c0-.102.1-.102.202-.204l4.146-.613c.102 0 .203 0 .304.102.1.102.1.102.1.204l-.201 8.88c0 .205-.102.307-.304.307Zm-3.54-8.166 3.237 6.635.1-7.145-3.336.51Z"/><path fill="#319FDC" d="M56.353 35.542c-.1 0-.1 0-.202-.102-.101-.102-.101-.204-.101-.306l3.034-10.003c0-.102.1-.204.303-.204.202 0 .304.102.304.204l2.73 6.328c.101.102 0 .306-.101.409l-5.764 3.674c-.102-.102-.102 0-.203 0Zm3.034-9.493-2.528 8.37 4.854-3.062-2.326-5.308Z"/><path fill="#319FDC" d="M59.185 39.319c-.101 0-.202 0-.303-.102l-2.832-3.879c-.101-.102-.101-.204-.101-.204 0-.102.1-.204.1-.204l5.765-3.675a.306.306 0 0 1 .405 0c.101.102.101.204.101.408l-2.933 7.554c0 .102-.101.102-.202.102Zm-2.427-4.083 2.225 3.164 2.427-6.124-4.652 2.96Z"/><path fill="#319FDC" d="M53.32 51.262c-.102 0-.102 0-.203-.102-.101-.103-.202-.307-.101-.409l5.866-11.84c.1-.102.202-.205.303-.205.101 0 .202.103.303.205l2.124 3.98c.101.103 0 .307-.101.409l-7.99 7.962c-.1-.102-.202 0-.202 0Zm5.865-11.535-4.753 9.595 6.472-6.43-1.72-3.165ZM45.431 59.632l-7.585-1.021c-.101 0-.303-.102-.303-.306 0-.102.1-.307.202-.307l6.472-2.551h.203c.1 0 .1.102.202.204l1.112 3.572c0 .102 0 .204-.1.306 0 .102-.102.102-.203.102Zm-6.27-1.43 5.865.715-.809-2.756-5.056 2.041Z"/><path fill="#319FDC" d="M45.43 59.631c-.201 0-.303-.102-.303-.204l-1.112-3.572c0-.102 0-.306.101-.409l8.9-4.9c.101-.101.303 0 .404.103a.313.313 0 0 1 0 .408l-7.787 8.472c0 .102-.1.102-.202.102Zm-.707-3.674.91 2.756 6.17-6.635-7.08 3.879ZM16.507 54.63c-.101 0-.202 0-.202-.102l-5.967-6.635c-.101-.102-.101-.204 0-.408.101-.102.202-.204.304-.204l15.372 2.45c.1 0 .202.101.303.305 0 .103-.101.307-.202.307l-9.406 4.185c-.1.102-.202.102-.202.102Zm-5.158-6.533 5.26 5.818 8.292-3.674-13.552-2.144Z"/><path fill="#319FDC" d="M25.811 58.917c-.1 0-.202 0-.202-.102-.101-.102-.101-.102-.101-.204l.101-8.472c0-.102.101-.205.202-.306.102-.103.203 0 .304 0L38.048 58.1c.101.102.203.205.101.307 0 .102-.202.204-.303.204l-12.035.306Zm.405-8.166-.101 7.554 10.72-.205-10.62-7.349ZM5.787 32.378c-.101 0-.202 0-.202-.102-.101-.102-.101-.204-.101-.307l3.135-16.637c0-.103.101-.205.202-.205s.202 0 .304.102l11.73 14.597c.102.102.102.204 0 .306 0 .102-.1.204-.201.204L5.787 32.378Zm3.338-16.332L6.192 31.663l13.855-1.94L9.125 16.047Zm46.318 1.225-13.855-.102c-.101 0-.202-.102-.303-.204-.102-.102-.102-.204 0-.306l5.46-9.29.203-.203c.101 0 .202 0 .303.102l8.394 9.39c.101.103.101.205.101.307-.1.306-.202.306-.303.306Zm-13.35-.715 12.541.103-7.585-8.575-4.955 8.473Zm2.226 39.604c-.102 0-.102 0-.203-.101-.1-.102-.1-.204-.1-.306l1.314-9.391c0-.102.1-.204.202-.204h.304l7.584 4.49c.102.103.203.205.203.307 0 .102-.101.204-.203.306l-8.9 4.798c-.1 0-.1.102-.202.102Zm1.618-9.186-1.113 8.268 7.888-4.287-6.775-3.98ZM15.8 48.403c-.102-.102-.102-.102-.102-.204l.708-12.555c0-.102.101-.204.101-.204.101-.102.202-.102.304 0l11.023 5.41c.101 0 .202.102.202.204s-.1.204-.1.306l-11.833 7.145c-.102 0-.203 0-.304-.102Zm1.213-12.35-.708 11.534 10.821-6.635-10.113-4.9Z"/><path fill="#319FDC" d="m41.588 17.17-12.945-.715c-.101 0-.202 0-.202-.102-.101-.103-.101-.205-.101-.205l1.517-9.39c0-.102.1-.205.202-.205.101 0 .202 0 .303.103L41.69 16.76c.101.102.101.204.101.408h-.202Zm-12.54-1.328 11.63.715L30.463 7.37l-1.416 8.472Zm16.585 30.724L35.52 45.24c-.101 0-.202-.102-.303-.204 0-.102 0-.204.1-.306l6.675-6.635c.102-.102.203-.102.304-.102.101 0 .202.102.202.204l3.439 7.962v.306c-.101.102-.203.102-.304.102Zm-9.405-1.94 8.9 1.226-3.034-7.043-5.866 5.818Z"/><path fill="#CAFCFF" d="M26.014 1.756c0 .714-.607 1.327-1.315 1.327s-1.315-.613-1.315-1.327c0-.715.607-1.327 1.315-1.327.809 0 1.315.612 1.315 1.327ZM8.315 51.874c0 .714-.606 1.327-1.314 1.327-.708 0-1.315-.613-1.315-1.327 0-.715.607-1.327 1.315-1.327.809.102 1.314.612 1.314 1.327ZM2.652 29.52c0 .714-.607 1.327-1.315 1.327S.023 30.234.023 29.52c0-.715.606-1.327 1.314-1.327.81 0 1.315.612 1.315 1.327Zm44.094 29.703c0 .715-.607 1.327-1.315 1.327s-1.315-.612-1.315-1.327c0-.714.607-1.327 1.315-1.327.708.102 1.315.613 1.315 1.327Z"/><path stroke="#319FDC" stroke-miterlimit="10" stroke-width=".8" d="M36.531 21.66v10.207l5.664 5.104 5.663-5.103V21.66m-27.306.409V36.97l11.428-6.94-11.428-7.962Z"/><path fill="#CAFCFF" d="M21.968 37.481c0 .715-.607 1.327-1.314 1.327-.708 0-1.315-.612-1.315-1.327 0-.714.607-1.327 1.315-1.327.809 0 1.314.613 1.314 1.327Zm21.238 0c0 .715-.607 1.327-1.315 1.327s-1.314-.612-1.314-1.327c0-.714.606-1.327 1.314-1.327.81 0 1.315.613 1.315 1.327Z"/></svg>