<svg xmlns="http://www.w3.org/2000/svg" width="190" height="110" fill="none"><path fill="#74BBFD" d="M95.943 11.38v84.532s2.04 10.878 14.278 10.198c12.238-.679 14.504-10.878 14.504-10.878s11.558-1.36 12.011-10.651c0 0 14.731-9.065 13.144-27.422-1.586-18.357-9.291-21.076-9.291-21.076s-.907-18.584-11.785-19.037c0 0-7.252-14.05-20.396-13.144-13.145.906-12.465 7.478-12.465 7.478Z"/><path fill="#4B79D3" d="M95.937 11.38v84.532s-2.04 10.878-14.277 10.198c-12.238-.679-14.504-10.878-14.504-10.878s-11.558-1.36-12.012-10.651c0 0-14.73-9.065-13.144-27.422 1.587-18.357 9.292-21.076 9.292-21.076s.906-18.584 11.784-19.037c0 0 7.253-14.05 20.397-13.144 13.144.906 12.464 7.478 12.464 7.478Z"/><path fill="#94FAFF" d="M83.602 2.028c-12.299-.844-19.713 9.939-21.676 13.236-10.003 1.361-12.047 15.572-12.43 19.66-2.468 1.583-8.048 6.803-9.367 22.073-1.466 16.962 9.999 26.353 13.224 28.64.908 7.187 7.808 10.364 12.333 11.262 1.464 4.18 6.111 10.544 15.87 11.087.398.022.788.033 1.17.033 10.129 0 14.276-7.595 15.058-11.76l.032-.172V11.438c.028-.572-.01-2.605-1.75-4.674-2.299-2.73-6.492-4.324-12.464-4.736Zm-4.77 18.482c2.152 0 3.902 1.75 3.902 3.901s-1.75 3.901-3.901 3.901-3.9-1.75-3.9-3.9a3.905 3.905 0 0 1 3.9-3.902Zm2.932 83.725c-10.6-.589-12.693-9.058-12.775-9.41l-.29-1.302-1.323-.155c-.1-.012-9.984-1.262-10.356-8.88l-.05-.985-.838-.52c-.561-.348-13.724-8.73-12.26-25.663 1.435-16.614 8.016-19.454 8.045-19.467l1.187-.42.063-1.258c.009-.169.953-16.876 9.988-17.253l1.088-.047.501-.965c.054-.104 4.437-8.348 12.21-11.205v10.292c-3.314.84-5.778 3.841-5.778 7.415 0 4.222 3.435 7.657 7.657 7.657 4.222 0 7.658-3.436 7.658-7.658 0-3.573-2.465-6.573-5.78-7.414V5.828a15.06 15.06 0 0 1 1.57-.09c.35 0 .704.012 1.063.037 8.617.594 10.779 3.815 10.722 5.448L94.064 41.4h-8.95c-.84-3.315-3.841-5.779-7.414-5.779-4.222 0-7.657 3.435-7.657 7.657 0 4.223 3.435 7.658 7.657 7.658 3.573 0 6.574-2.464 7.414-5.78h8.95l-.001 11.258H66.304c-.84-3.315-3.841-5.78-7.414-5.78-4.222 0-7.657 3.436-7.657 7.658s3.435 7.657 7.657 7.657c3.573 0 6.573-2.463 7.414-5.779h27.758l-.001 24.8H79.578v-5.326c3.315-.84 5.78-3.841 5.78-7.414 0-4.222-3.436-7.657-7.658-7.657s-7.657 3.435-7.657 7.657c0 3.573 2.463 6.574 5.779 7.414v9.081H94.06v6.987c-.293 1.247-2.516 9.08-12.296 8.523ZM81.6 43.279a3.905 3.905 0 0 1-3.901 3.9 3.905 3.905 0 0 1-3.901-3.9 3.905 3.905 0 0 1 3.9-3.902 3.906 3.906 0 0 1 3.902 3.901ZM62.79 58.291a3.905 3.905 0 0 1-3.901 3.901 3.905 3.905 0 0 1-3.901-3.9 3.905 3.905 0 0 1 3.9-3.902 3.906 3.906 0 0 1 3.902 3.901Zm14.91 17.84a3.905 3.905 0 0 1-3.901-3.901 3.905 3.905 0 0 1 3.9-3.901 3.906 3.906 0 0 1 3.902 3.901 3.905 3.905 0 0 1-3.901 3.901Zm38.332 5.703a1.878 1.878 0 0 0-2.213 1.468c-.989 4.88-7.478 4.076-7.764 4.038a1.877 1.877 0 0 0-.513 3.72c.528.075 1.133.119 1.786.119 3.734 0 9.021-1.448 10.172-7.132a1.877 1.877 0 0 0-1.468-2.213Zm14.337-19.5a1.88 1.88 0 0 0-2.484.94c-3.053 6.772-8.563 5.017-9.192 4.79a1.878 1.878 0 0 0-1.318 3.518c.928.35 2.175.611 3.569.611 3.435 0 7.757-1.593 10.365-7.375a1.877 1.877 0 0 0-.94-2.484Zm-23.278-22.402c.055.024 5.501 2.46 5.501 7.878 0 5.337-4.451 7.424-4.662 7.52a1.878 1.878 0 0 0 1.513 3.437c.281-.123 6.905-3.106 6.905-10.957 0-7.851-7.44-11.184-7.757-11.321a1.879 1.879 0 0 0-1.5 3.444Zm7.478-14.892c.453-.005 4.271.052 4.655 6.985.056 1 .884 1.774 1.873 1.774.035 0 .071-.002.107-.004a1.878 1.878 0 0 0 1.771-1.979c-.216-3.874-1.378-6.768-3.454-8.6-2.329-2.057-4.898-1.945-5.18-1.925a1.864 1.864 0 0 0-1.73 1.97c.054 1.024.947 1.839 1.958 1.78Zm8.621 26.988a1.877 1.877 0 0 0 2.548.747c.276-.15 6.739-3.77 5.719-11.006a1.878 1.878 0 1 0-3.719.525c.652 4.629-3.616 7.082-3.808 7.189a1.879 1.879 0 0 0-.74 2.545Z"/></svg>