<svg xmlns="http://www.w3.org/2000/svg" width="190" height="110" fill="none"><g clip-path="url(#a)"><path fill="#74BBFD" d="M103.547 49.986h67.309V0h-67.309v49.986Z"/><path fill="#94FAFF" d="M113.893 11.083h-.039l-2.458 1.17-.496-2.26 3.41-1.586h2.497v12.884h-2.914V11.083Zm16.666 3.707c0 3.983-1.606 6.719-4.896 6.719-3.33 0-4.797-2.993-4.817-6.64 0-3.726 1.586-6.68 4.916-6.68 3.449 0 4.797 3.073 4.797 6.601Zm-6.68.08c-.02 2.952.694 4.36 1.863 4.36 1.17 0 1.804-1.467 1.804-4.4 0-2.855-.615-4.361-1.824-4.361-1.11 0-1.863 1.407-1.843 4.4Zm12.007-3.787h-.039l-2.458 1.17-.496-2.26 3.41-1.586h2.497v12.884h-2.914V11.083Zm16.666 3.707c0 3.983-1.605 6.719-4.896 6.719-3.329 0-4.796-2.993-4.816-6.64 0-3.726 1.585-6.68 4.915-6.68 3.45 0 4.797 3.073 4.797 6.601Zm-6.679.08c-.02 2.952.693 4.36 1.863 4.36 1.169 0 1.804-1.467 1.804-4.4 0-2.855-.615-4.361-1.824-4.361-1.11 0-1.863 1.407-1.843 4.4Zm12.007-3.787h-.04l-2.458 1.17-.495-2.26 3.409-1.586h2.497v12.884h-2.913V11.083Zm-38.318 25.305c0 3.983-1.605 6.718-4.896 6.718-3.33 0-4.796-2.993-4.816-6.64 0-3.726 1.585-6.679 4.915-6.679 3.449 0 4.797 3.072 4.797 6.6Zm-6.68.079c-.02 2.953.694 4.36 1.864 4.36 1.169 0 1.803-1.467 1.803-4.4 0-2.855-.614-4.36-1.823-4.36-1.11 0-1.864 1.407-1.844 4.4Zm12.008-3.787h-.04l-2.458 1.17-.496-2.26 3.41-1.585h2.497v12.884h-2.913V32.68Zm16.665 3.708c0 3.983-1.605 6.718-4.896 6.718-3.329 0-4.796-2.993-4.816-6.64 0-3.726 1.585-6.679 4.915-6.679 3.45 0 4.797 3.072 4.797 6.6Zm-6.68.079c-.02 2.953.694 4.36 1.864 4.36 1.169 0 1.803-1.467 1.803-4.4 0-2.855-.614-4.36-1.823-4.36-1.11 0-1.864 1.407-1.844 4.4Zm12.008-3.787h-.039l-2.458 1.17-.496-2.26 3.41-1.585h2.497v12.884h-2.914V32.68Zm16.666 3.708c0 3.983-1.606 6.718-4.896 6.718-3.33 0-4.797-2.993-4.817-6.64 0-3.726 1.586-6.679 4.916-6.679 3.449 0 4.797 3.072 4.797 6.6Zm-6.68.079c-.02 2.953.694 4.36 1.863 4.36 1.17 0 1.804-1.467 1.804-4.4 0-2.855-.615-4.36-1.824-4.36-1.109 0-1.863 1.407-1.843 4.4Z"/><path fill="#74BBFD" d="M20.721 106.649a7.446 7.446 0 0 1 1.287-10.45l46.063-35.965a7.445 7.445 0 0 1 9.164 11.737l-46.063 35.964a7.445 7.445 0 0 1-10.45-1.286Z"/><path fill="#4B79D3" d="M83.225 99.637c23.268 0 42.131-18.863 42.131-42.13 0-23.269-18.863-42.132-42.131-42.132s-42.13 18.863-42.13 42.131 18.862 42.131 42.13 42.131Z"/><path fill="#74BBFD" d="M83.313 101.643a44.99 44.99 0 0 1-5.481-.336c-11.7-1.44-22.138-7.351-29.392-16.643-14.975-19.18-11.554-46.968 7.626-61.942 9.292-7.254 20.852-10.456 32.552-9.016 11.699 1.44 22.137 7.35 29.392 16.643 7.254 9.29 10.455 20.85 9.015 32.55-1.441 11.699-7.351 22.137-16.642 29.391-7.835 6.117-17.285 9.353-27.07 9.353Zm-.17-84.274c-8.898 0-17.49 2.942-24.615 8.505-17.442 13.618-20.553 38.887-6.935 56.33 6.596 8.448 16.089 13.822 26.728 15.132 10.639 1.31 21.15-1.603 29.6-8.198 8.45-6.597 13.824-16.09 15.134-26.728 1.31-10.64-1.601-21.151-8.198-29.6-6.597-8.45-16.09-13.824-26.728-15.134a40.827 40.827 0 0 0-4.985-.307Z"/><path fill="#74BBFD" d="M50.162 60.77a2 2 0 0 1-2-2c0-19.593 15.94-35.534 35.533-35.534a2 2 0 0 1 0 4c-17.387 0-31.533 14.146-31.533 31.534a2 2 0 0 1-2 2Z"/><path fill="#94FAFF" d="M90.476 67.778c1.124.08 2.129.16 3.135.22 1.441.087 2.314.81 2.634 2.2.32 1.395.671 2.784.945 4.188.083.425.095.975-.11 1.32-.396.67-1.162.42-1.774.378-.46-.032-.486-.508-.563-.897-.278-1.403-.58-2.802-.879-4.202-.075-.354-.264-.6-.657-.638-1.023-.097-2.045-.199-3.067-.3-.2-.02-.403-.032-.6-.068-.452-.084-.786.023-1.11.399-1.888 2.188-4.27 3.154-7.161 2.79-2.27-.287-4.066-1.379-5.475-3.163-.147-.186-.439-.359-.668-.365-1.343-.034-2.687-.012-4.031-.019-.378-.001-.532.144-.601.54-.268 1.535-.592 3.06-.88 4.591-.078.407-.295.535-.691.512-.459-.028-.92-.012-1.38 0-.327.009-.435-.151-.377-.446.308-1.565.62-3.13.932-4.694.09-.45.16-.905.28-1.346.278-1.022.818-1.425 1.87-1.429 1.05-.004 2.1-.01 3.149.003.334.004.5-.076.504-.458.012-1.655.038-3.31.087-4.965.015-.489-.164-.619-.64-.628a147.39 147.39 0 0 1-5.726-.21c-.364-.022-.753-.268-1.06-.503-1.489-1.136-2.948-2.31-4.43-3.455-.415-.322-.508-.705-.32-1.164.273-.665 1.232-1.148 1.922-.979a.764.764 0 0 1 .287.15c1.347 1.095 2.686 2.199 4.042 3.282.19.152.454.283.69.292 1.561.062 3.124.08 4.686.133.408.014.547-.136.561-.535.06-1.763.137-3.525.223-5.287.019-.381-.119-.522-.5-.532-1.083-.027-2.165-.088-3.248-.127-.831-.03-1.28-.327-1.457-1.129-.284-1.288-.5-2.592-.759-3.886-.075-.376-.192-.745-.304-1.113-.18-.59.129-1.001.516-1.359.37-.341.84-.53 1.313-.296.258.127.55.415.608.679a66.4 66.4 0 0 1 .673 3.736c.174 1.104.26 1.2 1.349 1.21.515.004 1.03 0 1.545.022.332.014.453-.133.482-.448.163-1.753.882-3.256 2.13-4.486.336-.33.258-.658.187-1.01-.457-2.287-1.25-4.42-2.928-6.121a6.106 6.106 0 0 0-3.034-1.707 4.068 4.068 0 0 1-.678-.229c-.998-.424-1.152-1.541-.281-2.232.167-.133.49-.14.727-.104 2.712.41 4.837 1.748 6.327 4.066.81 1.26 1.46 2.59 1.81 4.056.059.25.133.497.215.74.253.752.29.765 1.045.537 1.941-.587 3.868-.62 5.76.19.4.172.517-.003.612-.342.675-2.405 1.838-4.544 3.71-6.212 1.404-1.252 3.014-2.172 4.988-2.177.868-.002 1.576 1.069 1.161 1.829-.138.253-.548.455-.86.502-2.847.427-4.624 2.17-5.8 4.653-.391.828-.705 1.693-1.046 2.545-.155.385-.135.692.227 1.02 1.333 1.213 2.028 2.767 2.243 4.54.062.509.28.739.814.726.53-.013 1.063.04 1.592.094.369.038.545-.115.615-.46.224-1.115.456-2.229.685-3.342.026-.126.054-.251.083-.376.224-.954.224-.95 1.19-.857.251.024.513-.03.76.01.642.109.843.404.704 1.047-.153.698-.346 1.387-.509 2.084a257.63 257.63 0 0 0-.758 3.327c-.08.363-.186.581-.642.657-1.274.212-2.542.367-3.835.24-.477-.048-.717.114-.716.679a102.45 102.45 0 0 1-.117 4.85c-.025.548.212.71.686.737 1.247.07 2.496.12 3.738.235 1.13.103 1.896-.608 2.735-1.14.915-.579 1.764-1.261 2.684-1.83a2.05 2.05 0 0 1 1.183-.286 1.386 1.386 0 0 1 1.243 1.16c.088.521-.213 1.085-.897 1.38-1.489.639-2.76 1.599-3.975 2.633-.522.445-1.062.487-1.685.466-1.8-.058-3.602-.078-5.404-.12-.325-.008-.397.161-.404.446a198.481 198.481 0 0 1-.114 3.415c-.03.692-.086 1.383-.136 2.163Z"/></g><defs><clipPath id="a"><path fill="#fff" d="M0 0h190v110H0z"/></clipPath></defs></svg>