<svg xmlns="http://www.w3.org/2000/svg" width="190" height="110" fill="none"><path fill="#4B79D3" d="M123.068 66.14c.001-.953-.561-1.52-1.498-1.515-3.31.022-6.62.041-9.93.056-.258 0-.516-.041-.798-.066 1.335-4.205.481-7.569-2.454-9.9-2.649-2.106-6.401-2.342-9.311-.582-1.429.865-2.509 2.053-3.21 3.568-1.05 2.27-1.027 4.576-.034 6.938h-9.68v-1.135c0-3.499-.005-6.997-.001-10.496 0-.683-.049-1.338-.784-1.654-.676-.291-1.174.045-1.684.471-1.375 1.151-2.972 1.563-4.728 1.21-2.34-.471-4.048-2.28-4.442-4.632-.372-2.223.763-4.584 2.75-5.723 2.049-1.174 4.512-.968 6.39.57.538.442 1.072.807 1.772.472.663-.318.732-.946.731-1.6-.005-4.185.004-8.37-.006-12.556-.003-1.341-.418-1.745-1.725-1.745-10.87-.003-21.741.047-32.61-.037-3.037-.023-5.174 2.14-5.164 5.194.07 22.053.037 44.106.037 66.159 0 3.235 1.82 5.031 5.054 5.03 14.525-.003 29.05.002 43.574.002 7.653.001 15.306.003 22.959-.009 2.398-.003 4.182-1.35 4.637-3.549.15-.723.115-1.49.116-2.238.018-10.744.027-21.49.039-32.234Z"/><path fill="#74BBFD" d="M102.939 106.074h-3.795l-20.167-.002c-9.078-.001-18.155-.002-27.233 0-4.293 0-6.96-2.657-6.96-6.935l.004-15.97c.006-16.449.012-33.457-.041-50.184-.007-2.001.71-3.822 2.02-5.126 1.282-1.276 3.056-1.978 5.001-1.978h.063c7.777.06 15.69.05 23.345.043 3.082-.003 6.159-.003 9.25-.006 2.368 0 3.624 1.26 3.63 3.644.006 2.341.005 4.682.005 7.022l.002 5.538c0 .608 0 2.45-1.813 3.32-1.851.887-3.32-.32-3.804-.716-1.247-1.023-2.87-1.173-4.235-.391-1.294.741-2.058 2.32-1.817 3.755.265 1.588 1.39 2.767 2.937 3.078 1.178.24 2.202-.025 3.131-.802.456-.38 1.842-1.541 3.66-.76 1.938.835 1.935 2.771 1.934 3.408-.002 2.62 0 5.243.001 7.866l.001 1.856h5.248c-.32-1.99-.043-3.943.832-5.833.856-1.85 2.185-3.329 3.953-4.397 3.591-2.173 8.207-1.885 11.482.719 2.166 1.722 4.38 4.714 3.657 9.546 2.775-.014 5.551-.031 8.328-.049.969.004 1.823.322 2.451.947.632.629.965 1.485.964 2.474l-.01 9.21c-.008 7.675-.016 15.35-.029 23.025l.001.366c.005.684.01 1.459-.157 2.258-.635 3.072-3.187 5.06-6.499 5.066-5.114.007-10.227.008-15.34.008Zm-40.32-3.813 16.358.001 20.166.002c6.375-.002 12.754.001 19.13-.008.879-.001 2.409-.267 2.774-2.031.085-.405.082-.917.078-1.46l-.001-.397c.013-7.673.021-15.347.029-23.021l.009-8.813c-3.184.02-6.348.038-9.513.052-.229.014-.485-.021-.737-.048l-.226-.023-2.384-.197.724-2.279c1.089-3.43.493-5.992-1.823-7.834-2.036-1.616-4.904-1.794-7.14-.442-1.121.678-1.929 1.574-2.466 2.738-.803 1.734-.806 3.5-.008 5.4l1.11 2.643H84.25l-.002-5.663c-.002-2.365-.004-4.73-.002-7.095-1.679 1.142-3.622 1.527-5.666 1.116-3.086-.622-5.419-3.05-5.944-6.185-.502-3 1.012-6.16 3.682-7.69 2.509-1.44 5.547-1.304 7.936.297l-.002-4.742c0-2.285 0-4.57-.005-6.856-3.018.004-6.044.003-9.066.006-7.662.009-15.583.017-23.38-.043h-.034c-.942 0-1.741.3-2.311.868-.59.588-.902 1.423-.898 2.414.053 16.734.047 33.745.041 50.197l-.004 15.969c0 2.162.971 3.125 3.15 3.125l10.874-.001ZM114.816 7.45c3.21 1.268 6.317 2.488 9.417 3.722 5.903 2.35 11.802 4.708 17.703 7.062 1.536.612 1.832 1.246 1.237 2.743-3.474 8.735-6.953 17.468-10.432 26.2-.109.273-.23.54-.402.94l-7.52-2.972c2.507-3.385 2.938-6.836.466-10.269-1.91-2.651-4.666-3.723-7.851-3.091-4.093.812-6.155 3.594-6.644 7.772l-7.568-3.004 3.687-9.267c.068-.172.129-.349.208-.517.344-.724.508-1.56-.197-2.027-.499-.331-1.333-.44-1.928-.291-1.804.452-3.412.219-4.799-1.016-1.528-1.36-2.04-3.083-1.458-5.053.57-1.925 1.917-3.113 3.872-3.428 2.046-.33 3.726.423 4.917 2.16.084.123.12.297.229.38.532.396 1.134 1.13 1.611 1.06.568-.084 1.254-.769 1.508-1.357 1.236-2.864 2.345-5.784 3.5-8.683.123-.308.256-.613.444-1.063Z"/><path fill="#94FAFF" d="M114.816 7.45c3.21 1.268 6.317 2.488 9.417 3.722 5.903 2.35 11.802 4.708 17.703 7.062 1.536.612 1.832 1.246 1.237 2.743-3.474 8.735-6.953 17.468-10.432 26.2-.109.273-.23.54-.402.94l-7.52-2.971c2.507-3.386 2.938-6.837.466-10.27-1.553-2.156-3.666-3.268-6.114-3.268-.562 0-1.142.059-1.737.177-4.093.812-6.155 3.594-6.644 7.772-2.548-1.01-5.014-1.99-7.568-3.004l3.687-9.267c.068-.172.129-.349.208-.517.344-.724.508-1.56-.197-2.027-.352-.234-.871-.357-1.354-.357-.202 0-.399.022-.574.066a6.629 6.629 0 0 1-1.61.214c-1.163 0-2.229-.375-3.189-1.23-1.528-1.36-2.04-3.083-1.458-5.053.57-1.925 1.917-3.113 3.872-3.428.314-.051.619-.076.915-.076 1.635 0 2.993.765 4.002 2.236.084.123.12.297.229.38.508.378 1.08 1.064 1.545 1.064a.473.473 0 0 0 .066-.005c.568-.083 1.254-.768 1.508-1.356 1.236-2.864 2.345-5.784 3.5-8.683.123-.309.256-.613.444-1.063Zm-2.071-4.914-1.443 3.442-.17.404c-.115.27-.209.495-.3.721-.311.782-.619 1.566-.927 2.35-.43 1.09-.866 2.2-1.313 3.306a8.276 8.276 0 0 0-5.07-1.691c-.498 0-1.01.042-1.521.124-3.412.55-5.934 2.777-6.92 6.11-.994 3.362-.054 6.635 2.579 8.979 1.351 1.203 2.959 1.93 4.699 2.134l-2.333 5.864-.344.866-1.41 3.543 3.544 1.407 4.253 1.688 3.315 1.316 4.614 1.831.576-4.93c.374-3.197 1.71-4.102 3.601-4.478a5.15 5.15 0 0 1 .996-.104c.776 0 1.934.175 3.022 1.685 1.136 1.578 1.497 3.164-.436 5.775l-2.952 3.987 4.613 1.824 2.962 1.17 4.558 1.802 3.443 1.361 1.459-3.402.152-.351c.112-.256.203-.468.288-.681l1.21-3.037c3.076-7.721 6.152-15.442 9.223-23.166 1.365-3.43.107-6.305-3.365-7.69l-5.704-2.277c-4-1.596-8-3.193-12.002-4.786-2.134-.85-4.27-1.692-6.442-2.548l-2.984-1.177-3.471-1.371Zm-1.214 72.936H59.855v3.81h51.676v-3.81Zm0 11.441H59.855v3.81h51.676v-3.81Z"/></svg>