<svg xmlns="http://www.w3.org/2000/svg" width="190" height="110" fill="none"><path fill="#4B79D3" d="M164.793 30.163c-.029-.093-2.969-9.345-10.731-11.486-6.536-1.808-14.77 1.705-24.465 10.427l-2.675-2.972c10.791-9.71 20.295-13.508 28.236-11.302 9.881 2.75 13.318 13.7 13.459 14.165l-3.824 1.168Z"/><g fill="#74BBFD"><path d="m160.061 57.67 29.751-12.486-6.293-14.997-29.751 12.485 6.293 14.997Z"/><path d="m161.611 43.898 17.288-7.255-6.293-14.997-17.288 7.255 6.293 14.997Z"/></g><path fill="#4B79D3" d="M41.227 99.63a16.87 16.87 0 0 1-4.544-.61c-9.88-2.749-13.317-13.699-13.458-14.164l3.825-1.164-1.912.582 1.911-.585c.03.092 2.97 9.343 10.73 11.486 6.536 1.804 14.77-1.706 24.466-10.43l2.675 2.973c-8.804 7.922-16.75 11.913-23.693 11.913Z"/><path fill="#4B79D3" d="M144.911 54.349c.368 26.489-20.793 47.83-46.662 48.35-26.866.539-48.743-20.958-48.743-47.684 0-26.16 20.917-47.68 47.7-47.724 26.159-.041 47.331 20.881 47.705 47.058Z"/><path fill="#94FAFF" d="M75.053 34.676a47.195 47.195 0 0 1-12-8.955 44.634 44.634 0 0 0-8.257 14.298c-1.547 4.386-2.41 8.902-2.536 13.575h20.418a83.774 83.774 0 0 1 2.375-18.918Z"/><path fill="#4B79D3" d="M73.172 54.095H51.746l.013-.514c.127-4.644.99-9.263 2.565-13.729a45.405 45.405 0 0 1 8.348-14.457l.356-.416.382.393a46.405 46.405 0 0 0 11.876 8.862l.346.18-.093.38a83.802 83.802 0 0 0-2.361 18.807l-.006.494Zm-20.396-1h19.41a84.764 84.764 0 0 1 2.29-18.158 47.32 47.32 0 0 1-11.396-8.476 44.397 44.397 0 0 0-7.813 13.723 43.986 43.986 0 0 0-2.491 12.91Z"/><path fill="#94FAFF" d="M142.192 53.606c-.434-10.55-4.023-19.807-10.781-27.874-.094.08-.146.116-.189.16a46.547 46.547 0 0 1-11.458 8.582c-.29.153-.286.314-.222.588a83.986 83.986 0 0 1 2.115 15.974c.031.848.004 1.698.004 2.57h20.531Z"/><path fill="#4B79D3" d="M142.712 54.106h-21.551l.006-1.336c.006-.577.011-1.147-.01-1.716a83.897 83.897 0 0 0-2.102-15.88c-.055-.237-.184-.791.473-1.142a46.255 46.255 0 0 0 11.337-8.488 1.34 1.34 0 0 1 .144-.127l.463-.39.323.384c6.795 8.112 10.461 17.591 10.897 28.175l.02.52Zm-20.548-1h19.505c-.514-9.97-3.977-18.928-10.299-26.642a47.585 47.585 0 0 1-11.35 8.44c.001.013.005.027.009.044a84.91 84.91 0 0 1 2.128 16.07c.021.584.015 1.169.01 1.761l-.003.328Z"/><path fill="#94FAFF" d="M63.042 84.274c3.48-3.573 7.347-6.477 11.669-8.77.252-.134.242-.28.187-.515-1.402-5.996-2.078-12.08-2.208-18.23-.002-.124-.026-.247-.038-.35H52.235c.451 10.526 4.05 19.775 10.807 27.865Z"/><path fill="#4B79D3" d="m63.014 85.02-.355-.425c-6.796-8.137-10.471-17.612-10.924-28.165l-.021-.521h21.384l.05.443c.026.184.04.289.043.394.135 6.468.853 12.397 2.195 18.129.047.204.172.743-.44 1.07-4.308 2.286-8.085 5.124-11.545 8.678l-.387.397ZM52.759 56.91c.53 9.936 3.998 18.886 10.316 26.62 3.408-3.426 7.122-6.187 11.332-8.429-1.351-5.823-2.07-11.746-2.213-18.191H52.759Z"/><path fill="#94FAFF" d="M131.431 84.215c6.714-8.02 10.327-17.276 10.755-27.81h-20.439c0 .156.001.283-.001.411a82.212 82.212 0 0 1-2.2 17.936c-.114.486.005.682.416.9 2.558 1.356 4.972 2.94 7.196 4.794 1.446 1.206 2.828 2.49 4.273 3.77Z"/><path fill="#4B79D3" d="m131.485 84.93-.385-.34c-.453-.4-.899-.802-1.343-1.201-.994-.893-1.932-1.736-2.919-2.56-2.111-1.76-4.503-3.353-7.109-4.736-.631-.333-.831-.768-.669-1.455a82.218 82.218 0 0 0 2.187-17.828v-.905h21.46l-.021.52c-.429 10.548-4.086 20.006-10.871 28.112l-.33.393Zm-11.477-9.844c.001 0 .031.04.188.124 2.669 1.414 5.117 3.047 7.282 4.852 1.001.835 1.991 1.724 2.947 2.584.315.283.632.568.952.852 6.32-7.71 9.778-16.651 10.286-26.593h-19.417a83.117 83.117 0 0 1-2.214 17.962c-.039.168-.025.217-.024.219Z"/><path fill="#94FAFF" d="M98.618 10.155v27.24c6.19-.196 12.049-1.59 17.703-4.23-.602-1.838-1.131-3.648-1.784-5.412-1.621-4.38-3.706-8.513-6.791-12.067-1.667-1.92-3.51-3.642-5.904-4.65-1.028-.432-2.083-.765-3.224-.88Z"/><path fill="#4B79D3" d="M98.118 37.91V9.601l.551.057c1.066.108 2.137.4 3.368.918 2.701 1.137 4.672 3.153 6.086 4.782 2.807 3.233 4.994 7.116 6.883 12.221.453 1.225.854 2.493 1.243 3.72.179.567.36 1.138.548 1.71l.137.422-.401.187c-5.732 2.677-11.587 4.076-17.899 4.277l-.516.015Zm1-27.183v26.15c5.831-.249 11.268-1.552 16.591-3.98-.141-.434-.277-.866-.414-1.297-.402-1.271-.782-2.472-1.226-3.673-1.847-4.99-3.976-8.775-6.701-11.913-1.344-1.547-3.208-3.46-5.72-4.517-.921-.387-1.739-.637-2.53-.77Z"/><path fill="#94FAFF" d="M95.813 99.848V72.616c-6.186.211-12.046 1.599-17.76 4.252.856 2.424 1.61 4.834 2.551 7.17 1.646 4.086 3.781 7.898 6.844 11.122 1.512 1.591 3.164 3.009 5.232 3.85 1.001.409 2.028.725 3.133.838Z"/><path fill="#4B79D3" d="m96.313 100.402-.55-.057c-1.032-.105-2.071-.382-3.272-.871-2.361-.961-4.13-2.626-5.406-3.97-2.804-2.951-5.076-6.64-6.944-11.28-.652-1.616-1.225-3.299-1.778-4.924-.256-.753-.513-1.509-.78-2.265l-.152-.428.412-.192c5.765-2.677 11.637-4.083 17.954-4.298l.516-.018v28.303ZM78.677 77.133c.215.616.424 1.231.633 1.845.574 1.687 1.117 3.281 1.758 4.873 1.821 4.52 4.026 8.106 6.742 10.964 1.208 1.272 2.874 2.844 5.058 3.733.893.364 1.684.6 2.445.728v-26.14c-5.833.262-11.287 1.572-16.636 3.997Z"/><path fill="#94FAFF" d="M78.182 33.187c5.619 2.607 11.471 4.019 17.624 4.204V10.15c-.205.029-.367.046-.527.075-2.434.452-4.547 1.536-6.364 3.215-2.954 2.73-5.237 5.937-6.966 9.564a59.832 59.832 0 0 0-3.767 10.183Z"/><path fill="#4B79D3" d="m96.306 37.906-.514-.015c-6.145-.185-12.14-1.614-17.82-4.25l-.383-.177.11-.407a59.98 59.98 0 0 1 3.799-10.268c1.796-3.767 4.178-7.037 7.077-9.717 1.897-1.752 4.122-2.876 6.613-3.338.121-.022.242-.039.38-.057l.738-.101v28.33Zm-17.53-4.996c5.285 2.394 10.84 3.726 16.53 3.962V10.73c-2.275.435-4.312 1.47-6.051 3.078-2.807 2.594-5.113 5.76-6.855 9.412a58.897 58.897 0 0 0-3.623 9.691Z"/><path fill="#94FAFF" d="M98.608 99.85c.208-.02.356-.024.5-.051 1.814-.342 3.494-1.014 4.997-2.09 1.723-1.233 3.135-2.787 4.47-4.416 2.418-2.953 4.086-6.332 5.464-9.855.84-2.146 1.528-4.351 2.294-6.557-5.691-2.648-11.548-4.05-17.725-4.259v27.229Z"/><path fill="#4B79D3" d="M98.109 100.402V72.105l.516.017c6.289.213 12.15 1.621 17.92 4.305l.409.19-.148.427c-.239.688-.47 1.375-.701 2.06-.501 1.49-1.018 3.03-1.6 4.517-1.646 4.206-3.409 7.38-5.544 9.989-1.212 1.48-2.701 3.172-4.565 4.505-1.504 1.077-3.252 1.809-5.196 2.175-.111.021-.226.031-.362.043l-.73.069Zm1-27.26v26.147c1.763-.345 3.345-1.013 4.705-1.986 1.769-1.266 3.203-2.898 4.374-4.326 2.067-2.525 3.778-5.614 5.386-9.721.573-1.465 1.087-2.993 1.584-4.47.184-.547.367-1.093.556-1.641-5.355-2.431-10.797-3.743-16.605-4.003Z"/><path fill="#94FAFF" d="M77.5 74.123c5.863-2.64 11.956-4.029 18.314-4.246V56.416h-20.4c.03 5.982.736 11.842 2.085 17.707Z"/><path fill="#4B79D3" d="m77.149 74.829-.137-.594c-1.381-6.005-2.068-11.833-2.098-17.817l-.003-.502h21.403V70.36l-.482.017a47.916 47.916 0 0 0-18.127 4.202l-.556.25Zm-1.231-17.914c.062 5.537.697 10.948 1.935 16.505a48.896 48.896 0 0 1 17.461-4.024v-12.48H75.918Z"/><path fill="#94FAFF" d="M119.018 53.607a79.793 79.793 0 0 0-2.091-17.724 47.77 47.77 0 0 1-8.997 3.056c-3.069.711-6.184 1.087-9.32 1.196v13.472h20.408Z"/><path fill="#4B79D3" d="M119.521 54.106h-21.41V39.653l.482-.017c3.213-.112 6.317-.51 9.225-1.184a47.124 47.124 0 0 0 8.902-3.024l.555-.252.139.594a80.865 80.865 0 0 1 2.104 17.834l.003.502Zm-20.41-1h19.403a79.806 79.806 0 0 0-1.939-16.519 47.967 47.967 0 0 1-8.532 2.84c-2.824.654-5.827 1.053-8.933 1.189v12.49Z"/><path fill="#94FAFF" d="M98.609 69.88c6.385.213 12.465 1.613 18.317 4.251 1.343-5.85 1.991-11.743 2.083-17.728h-20.4V69.88Z"/><path fill="#4B79D3" d="m117.276 74.838-.556-.251c-5.807-2.619-11.737-3.995-18.128-4.208l-.483-.016v-14.46h21.408l-.008.508c-.098 6.282-.783 12.114-2.096 17.832l-.137.595Zm-18.167-5.44a48.745 48.745 0 0 1 17.463 4.029c1.176-5.305 1.808-10.723 1.928-16.524H99.109v12.495Z"/><path fill="#94FAFF" d="M75.469 53.598h20.34V40.13c-6.387-.212-12.465-1.608-18.254-4.23-.954 2.342-2.407 14.69-2.086 17.698Z"/><path fill="#4B79D3" d="M96.308 54.097H75.02l-.047-.447c-.333-3.111 1.134-15.517 2.12-17.938l.197-.48.472.214c5.673 2.567 11.75 3.976 18.064 4.185l.483.016v14.45Zm-20.374-1h19.374V40.613c-6.086-.26-11.953-1.615-17.456-4.032-.879 3.02-2.064 13.167-1.918 16.518Z"/><path fill="#94FAFF" d="M75.75 31.953c2.315-7.884 5.401-15.248 11.762-20.904-8.85 2.046-16.335 6.251-22.625 12.646 3.227 3.32 6.808 6.054 10.863 8.258Z"/><path fill="#4B79D3" d="m76.055 32.689-.544-.296c-4.094-2.226-7.686-4.957-10.983-8.35l-.34-.35.342-.348c6.423-6.53 13.904-10.711 22.87-12.783l1.909-.441-1.465 1.302c-6.613 5.88-9.582 13.75-11.615 20.671l-.174.595ZM65.59 23.697a44.113 44.113 0 0 0 9.857 7.518c1.917-6.403 4.679-13.528 10.334-19.217-7.807 2.115-14.433 5.956-20.191 11.7Z"/><path fill="#94FAFF" d="M129.541 23.697c-6.281-6.41-13.767-10.604-22.507-12.571 3.001 2.747 5.453 5.903 7.311 9.515 1.848 3.594 3.289 7.348 4.381 11.237 2.081-.684 8.38-5.447 10.815-8.18Z"/><path fill="#4B79D3" d="m118.386 32.516-.142-.503c-1.108-3.943-2.569-7.692-4.343-11.143-1.794-3.487-4.218-6.642-7.205-9.376l-1.386-1.269 1.833.412c8.768 1.974 16.424 6.25 22.755 12.71l.328.334-.312.35c-2.49 2.794-8.882 7.616-11.032 8.322l-.496.163Zm-9.669-20.462a34.168 34.168 0 0 1 6.072 8.359c1.725 3.352 3.159 6.982 4.265 10.793 2.267-1.067 7.424-5 9.796-7.496-5.689-5.693-12.453-9.608-20.133-11.656Z"/><path fill="#94FAFF" d="M87.314 98.814c-6.245-5.578-9.289-12.935-11.647-20.738a44.59 44.59 0 0 0-10.785 8.205c6.282 6.38 13.731 10.561 22.432 12.533Z"/><path fill="#4B79D3" d="m89.089 99.73-1.885-.428c-8.716-1.976-16.346-6.238-22.678-12.67l-.341-.348.338-.35a44.784 44.784 0 0 1 10.905-8.297l.54-.295.177.589c2.202 7.284 5.12 14.81 11.502 20.51l1.442 1.288ZM65.585 86.277c5.676 5.651 12.4 9.546 20.015 11.596-5.456-5.51-8.174-12.367-10.231-19.061a43.712 43.712 0 0 0-9.784 7.465Z"/><path fill="#94FAFF" d="M129.505 86.317a44.528 44.528 0 0 0-10.788-8.223c-.063.196-.106.319-.141.444-.889 3.143-2.001 6.202-3.418 9.148-1.811 3.764-4.022 7.252-7.057 10.167-.328.315-.669.616-1.004.924 8.708-1.918 16.143-6.09 22.408-12.46Z"/><path fill="#4B79D3" d="m105.397 99.664 1.701-1.564a34.3 34.3 0 0 0 .657-.609c2.702-2.593 4.911-5.778 6.953-10.022 1.344-2.793 2.452-5.76 3.387-9.067.025-.088.054-.175.089-.286l.24-.75.532.288c4.074 2.22 7.642 4.94 10.909 8.315l.339.35-.342.348c-6.337 6.444-13.961 10.683-22.657 12.599l-1.808.398Zm13.617-20.835c-.943 3.302-2.057 6.271-3.406 9.074-1.999 4.157-4.165 7.332-6.786 9.943 7.592-2.003 14.304-5.875 19.982-11.532a43.7 43.7 0 0 0-9.79-7.485Z"/><g fill="#74BBFD"><path d="M32.63 57.776.187 71.391 7.05 87.744 39.493 74.13 32.63 57.776Z"/><path d="m30.94 72.794-18.852 7.911 6.863 16.354 18.852-7.911-6.863-16.354Z"/></g></svg>