<svg xmlns="http://www.w3.org/2000/svg" width="190" height="110" fill="none"><path fill="#74BBFD" d="M121.848 99.75H68.152v7.246h53.696V99.75Z"/><path fill="#74BBFD" d="M102.25 53.061h-14.5v51.829h14.5V53.061Z"/><path fill="#4B79D3" d="M156.315 5.018H33.685v73.957h122.63V5.018Z"/><path fill="#74BBFD" d="M158.25 80.91H31.75V3.083h126.5V80.91ZM35.62 77.04h118.76V6.953H35.62V77.04Z"/><path fill="#74BBFD" d="M156.315 4.918H33.685v44.005h122.63V4.918Z"/><path fill="#94FAFF" d="M154.138 46.59H36.104v3.87h118.034v-3.87Zm-41.241-20.473H48.666v3.87h64.231v-3.87Zm0 7.99H48.666v3.87h64.231v-3.87Zm15.762-7.99h-8.889v3.87h8.889v-3.87Zm0 7.99h-8.889v3.87h8.889v-3.87ZM73.506 71.86l-6.288-6.772a1.934 1.934 0 0 1-.333-2.141l3.87-8.224 3.502 1.648-3.314 7.04 5.4 5.816-2.837 2.633Zm48.469-.335-3.336-1.963 4.108-6.982-5.309-5.716 2.836-2.633 6.289 6.772c.582.627.683 1.56.249 2.298l-4.837 8.224ZM63.538 13.461H48.844v3.87h14.694v-3.87Zm38.144 0h-12.96v3.87h12.96v-3.87Zm20.963 0h-12.96v3.87h12.96v-3.87Zm20.965 0h-12.96v3.87h12.96v-3.87ZM98.635 54.305l-6.531 17.081 3.615 1.383 6.531-17.081-3.615-1.383Z"/></svg>