<svg xmlns="http://www.w3.org/2000/svg" width="190" height="110" fill="none"><path fill="#74BBFD" d="M131.685 104.73H95.519v4.154h36.166v-4.154Z"/><path fill="#74BBFD" d="M118.968 55.703h-10.733v51.104h10.733V55.703Z"/><path fill="#4B79D3" d="M159.231 11.926H69.003v70.388h90.228V11.926Z"/><path fill="#74BBFD" d="M161.139 84.221H67.095V10.018h94.044V84.22Zm-90.228-3.816h86.412V13.834H70.911v66.571Z"/><path fill="#74BBFD" d="M95.855 29.453c-1.5-7.48-5.188-13.702-10.972-18.628-5-4.259-10.804-6.768-17.35-7.56a32.15 32.15 0 0 0-10.123.351c-5.837 1.147-11.01 3.689-15.482 7.638-4.675 4.13-7.91 9.183-9.734 15.147-1.398 4.569-1.762 9.228-1.122 13.956.63 4.65 2.332 8.914 5.1 12.677 2.47 3.357 5.158 6.552 7.752 9.816 2.817 3.544 5.233 5.563 6.344 10.024.292 1.174.492 2.37.73 3.537-.304.094-.451.145-.602.185-1.963.514-2.92 4.255-2.071 6.096.329.715.806 1.174 1.385 1.452-1.062.73-1.746 2.161-1.713 3.852.027 1.407.464 2.489 1.089 3.222-.753.86-1.217 2.2-1.064 3.457.274 2.238 1.363 3.51 3.123 3.61 2.062.117 3.595 1.266 4.545 3.694.698 1.784 1.794 3.062 3.238 3.794.53.269 1.089.44 1.635.656h6.171c.078-.05.153-.129.236-.145 2.03-.402 3.6-1.781 4.533-4.086 1.067-2.641 2.663-3.855 4.916-3.939 2.013-.075 3.378-2.803 2.7-5.265-.204-.737-.491-1.318-.868-1.753.241-.311.453-.687.631-1.124.59-1.446.585-2.938-.05-4.396-.331-.76-.75-1.265-1.229-1.59a3.034 3.034 0 0 0 1.543-1.786c.43-1.279-.007-4.457-1.15-5.242-.462-.318-1.031-.482-1.59-.734 0-.125-.02-.303.003-.476.623-4.48 2.33-6.79 5.02-10.392 2.213-2.965 4.588-5.812 6.914-8.692 2.4-2.972 4.581-6.08 6.029-9.642 2.334-5.747 2.697-11.67 1.483-17.714Z"/><path fill="#94FAFF" d="M67.294 108.337H60.2l-.338-.134c-.158-.062-.316-.12-.475-.178a12.316 12.316 0 0 1-1.32-.549c-1.884-.957-3.28-2.572-4.153-4.801-.818-2.093-1.913-2.431-2.875-2.485-2.689-.153-4.523-2.129-4.91-5.283-.151-1.244.105-2.57.686-3.705-.455-.925-.702-2-.725-3.17-.027-1.394.312-2.694.95-3.751a5.355 5.355 0 0 1-.447-.79c-.86-1.865-.47-4.335.296-5.956.483-1.02 1.15-1.81 1.935-2.307a36.79 36.79 0 0 0-.407-1.892c-.77-3.097-2.227-4.815-4.242-7.194a84.63 84.63 0 0 1-1.744-2.105 445.497 445.497 0 0 0-2.348-2.92c-1.816-2.247-3.694-4.57-5.446-6.951-2.943-4-4.778-8.56-5.455-13.553a34.378 34.378 0 0 1 1.189-14.77c1.925-6.296 5.389-11.685 10.295-16.019 4.698-4.15 10.208-6.867 16.377-8.08a34.26 34.26 0 0 1 10.72-.373c6.934.839 13.11 3.531 18.359 8.002 6.123 5.215 10.028 11.845 11.605 19.704 1.328 6.62.794 12.948-1.587 18.808-1.674 4.12-4.252 7.574-6.312 10.123l-1.584 1.952c-1.768 2.173-3.595 4.419-5.286 6.683-2.34 3.134-3.83 5.131-4.494 8.529.202.1.408.217.613.357 2.088 1.436 2.467 5.674 1.879 7.424-.166.493-.401.95-.697 1.358.116.204.224.42.323.646.833 1.913.856 3.946.068 5.88a7.135 7.135 0 0 1-.163.373c.186.385.343.81.471 1.278.542 1.962.166 4.153-.98 5.718-.89 1.214-2.128 1.91-3.487 1.96-1.111.041-2.27.403-3.219 2.747-1.116 2.763-3.037 4.54-5.57 5.163l-.407.261Zm-6.38-3.816h5.316a2.13 2.13 0 0 1 .36-.107c1.416-.28 2.47-1.266 3.144-2.932 1.33-3.29 3.555-5.015 6.614-5.13.237-.008.464-.283.55-.4.382-.522.648-1.482.381-2.45-.124-.45-.287-.8-.47-1.012l-1.026-1.183.961-1.237c.135-.173.26-.4.371-.673.402-.987.392-1.941-.032-2.915-.164-.375-.349-.634-.548-.77l-2.711-1.83 2.93-1.459c.285-.141.476-.366.583-.685.2-.595-.058-2.56-.472-3.095a5.425 5.425 0 0 0-.637-.281c-.2-.08-.401-.16-.603-.251l-1.127-.506V76.37a4.105 4.105 0 0 1 .021-.736c.694-4.996 2.66-7.63 5.38-11.274 1.739-2.328 3.591-4.606 5.383-6.808l1.577-1.943c1.894-2.345 4.26-5.504 5.745-9.16 2.124-5.228 2.576-10.665 1.38-16.621-1.404-7-4.882-12.904-10.338-17.55-4.667-3.976-10.166-6.371-16.342-7.12a30.34 30.34 0 0 0-9.526.331c-5.496 1.08-10.404 3.5-14.587 7.195-4.37 3.86-7.456 8.663-9.172 14.274a30.587 30.587 0 0 0-1.056 13.143c.59 4.352 2.186 8.324 4.746 11.803 1.701 2.312 3.551 4.6 5.34 6.813.793.98 1.585 1.96 2.369 2.946a80.052 80.052 0 0 0 1.668 2.012c2.08 2.457 4.047 4.777 5.033 8.738.214.857.378 1.712.537 2.539.07.36.139.72.212 1.078l.347 1.698-1.928.593c-.169.053-.29.09-.413.121-.055.022-.345.245-.614.9-.401.976-.418 2.085-.203 2.552.157.34.33.459.478.53l2.976 1.426-2.72 1.867c-.558.383-.905 1.262-.887 2.241.016.844.241 1.561.634 2.023l1.068 1.253-1.084 1.24c-.438.5-.687 1.31-.606 1.97.23 1.873 1.007 1.917 1.338 1.936 2.003.114 4.707 1.056 6.213 4.905.52 1.33 1.303 2.268 2.325 2.787.261.133.576.248.91.371l.213.078Z"/><path fill="#94FAFF" d="M42.98 37.627a1.908 1.908 0 0 1-1.909-1.908c0-11.985 9.75-21.736 21.736-21.736a1.908 1.908 0 0 1 0 3.816c-9.881 0-17.92 8.038-17.92 17.92a1.908 1.908 0 0 1-1.908 1.908Zm20.671 37.097a1.908 1.908 0 0 1-1.908-1.909V51.322a1.908 1.908 0 0 1 3.816 0v21.495a1.908 1.908 0 0 1-1.908 1.907Z"/><path fill="#94FAFF" d="M63.651 53.025c-.297 0-.594-.069-.867-.209l-10.758-5.489a1.908 1.908 0 1 1 1.735-3.398l9.838 5.02 8.707-4.977a1.909 1.909 0 0 1 1.894 3.313l-9.602 5.489c-.293.167-.62.251-.947.251Zm93.672-21.875H96.425v3.816h60.898V31.15Zm-9.063-5.345a3.339 3.339 0 1 0 0-6.678 3.339 3.339 0 0 0 0 6.678Zm-30.289 18.453h-16.635v3.816h16.635v-3.816Zm0 10.887h-16.635v3.816h16.635v-3.816Zm0 10.886h-16.635v3.816h16.635v-3.816Zm28.441-21.773h-16.635v3.816h16.635v-3.816Zm0 10.887h-16.635v3.816h16.635v-3.816Zm0 10.886h-16.635v3.816h16.635v-3.816Z"/></svg>